<?xml version="1.0" encoding="UTF-8"?>
<!DOCTYPE svg PUBLIC "-//W3C//DTD SVG 1.1//EN" "http://www.w3.org/Graphics/SVG/1.1/DTD/svg11.dtd">
<svg xmlns:xlink="http://www.w3.org/1999/xlink" id="f003-Layer_1" enable-background="new 0 0 221.480957 280.449585" version="1.1" xml:space="preserve" width="27.57913em" viewBox="0.280000001192093 0 220.633041381836 280.449584960938" height="35.0562em" xmlns="http://www.w3.org/2000/svg" x="0px" y="0px">
<defs>
<path d="M 987 -107C 958 -81 926 -62 916 -62C 909 -62 907 -69 914 -98L 969 -339C 990 -430 966 -449 939 -449C 923 -449 902 -442 876 -428C 834 -407 758 -354 688 -263L 686 -263C 717 -410 745 -540 775 -680C 781 -705 780 -714 771 -714C 757 -714 723 -699 702 -688L 698 -667C 689 -652 675 -649 586 -649L 199 -649C 172 -649 163 -650 153 -674L 132 -674C 121 -619 103 -554 85 -496L 115 -495C 134 -538 150 -566 165 -584C 184 -606 208 -615 293 -615L 365 -615L 259 -130C 239 -40 233 -34 147 -27L 141 0L 418 0L 424 -27C 332 -34 323 -40 342 -130L 443 -615L 510 -615C 577 -615 628 -611 684 -606C 645 -404 595 -166 556 4L 564 11C 586 4 612 -3 635 -7C 644 -60 663 -149 674 -192C 723 -275 841 -387 883 -387C 900 -387 903 -370 891 -319L 838 -84C 822 -16 828 12 854 12C 882 12 944 -23 998 -83Z" id="f003-glyph-0-263"/><path d="M 349 -124C 298 -75 244 -47 202 -47C 141 -47 125 -106 125 -160C 125 -169 125 -179 126 -192C 223 -216 390 -270 390 -369C 390 -411 356 -449 303 -449C 260 -449 207 -425 165 -392C 86 -332 44 -227 44 -134C 44 -15 108 12 155 12C 203 12 278 -7 365 -101ZM 266 -407C 295 -407 316 -387 316 -353C 316 -306 273 -261 130 -222C 148 -334 198 -380 224 -396C 235 -403 251 -407 266 -407Z" id="f003-glyph-0-70"/><path d="M 178 12C 234 12 289 -15 332 -51C 402 -109 439 -207 439 -293C 439 -392 389 -449 307 -449C 275 -449 234 -436 198 -416C 115 -373 46 -273 46 -143C 46 -63 83 12 178 12ZM 214 -28C 161 -28 130 -75 130 -149C 130 -302 197 -384 236 -402C 247 -407 259 -410 274 -410C 320 -410 355 -372 355 -291C 356 -163 300 -57 247 -34C 236 -30 226 -28 214 -28Z" id="f003-glyph-0-80"/><path d="M 492 -113C 464 -85 429 -61 420 -61C 413 -61 411 -70 416 -101C 441 -231 468 -343 495 -449L 484 -449L 415 -423C 402 -361 390 -309 379 -263C 339 -190 227 -56 172 -56C 156 -56 149 -73 160 -122C 179 -202 198 -282 216 -362C 231 -429 227 -449 205 -449C 178 -449 116 -413 57 -355L 69 -330C 103 -359 131 -378 139 -378C 145 -377 147 -369 141 -345C 123 -268 105 -192 86 -115C 61 -7 93 12 120 12C 144 12 173 1 201 -19C 254 -56 313 -116 362 -182L 364 -182C 357 -148 353 -128 345 -94C 325 -7 339 12 360 12C 390 12 457 -32 505 -90Z" id="f003-glyph-0-86"/><path d="M 338 -431L 221 -431L 257 -582L 247 -588L 172 -525L 149 -431L 88 -431L 63 -400L 66 -391L 140 -391L 82 -120C 59 -17 79 12 102 12C 155 12 231 -55 264 -95L 249 -116C 225 -91 177 -58 160 -58C 149 -58 143 -69 154 -118L 212 -392L 312 -396Z" id="f003-glyph-0-85"/><path d="M 238 -513L 229 -519C 206 -505 174 -483 156 -461L 145 -415C 111 -402 76 -385 49 -366L 56 -340C 78 -353 105 -366 137 -377C 100 -204 62 -30 25 145C 12 206 0 215 -62 227L -67 252L 164 241L 168 215L 143 213C 94 208 89 200 100 142L 128 2C 147 10 171 12 187 12C 251 -4 323 -48 373 -104C 430 -168 458 -245 458 -310C 458 -399 417 -449 314 -449C 287 -449 249 -445 221 -436ZM 212 -399C 231 -403 253 -406 269 -406C 327 -406 374 -384 374 -294C 374 -167 277 -32 206 -32C 181 -32 155 -50 143 -66Z" id="f003-glyph-0-81"/><path d="M 215 -117C 187 -88 147 -62 136 -62C 130 -62 126 -68 132 -97C 173 -294 214 -489 255 -682C 259 -703 258 -712 249 -712C 236 -712 179 -685 101 -677L 97 -652L 125 -652C 170 -651 176 -645 166 -601C 132 -437 97 -273 62 -109C 41 -11 57 12 77 12C 108 12 179 -33 230 -95Z" id="f003-glyph-0-77"/><path d="M 454 -116C 424 -87 390 -63 381 -63C 376 -63 373 -72 379 -106C 402 -233 432 -369 448 -431L 446 -435C 435 -435 421 -438 408 -441C 386 -446 366 -449 346 -449C 283 -449 210 -414 159 -372C 86 -311 39 -201 39 -100C 39 -21 71 12 97 12C 124 12 157 -6 190 -33C 233 -68 281 -116 319 -171L 322 -171L 302 -76C 287 -3 300 12 319 12C 344 12 411 -25 466 -92ZM 149 -52C 134 -52 122 -73 122 -118C 122 -217 162 -334 230 -384C 248 -397 275 -405 302 -405C 328 -405 354 -398 368 -391C 362 -359 347 -287 335 -248C 302 -178 188 -52 149 -52Z" id="f003-glyph-0-66"/><path d="M 239 -75C 233 -166 226 -256 217 -331C 208 -411 193 -449 165 -449C 129 -449 79 -391 47 -341L 64 -319C 89 -354 114 -377 122 -377C 130 -377 137 -365 143 -315C 157 -224 173 -68 174 11C 125 77 46 164 -61 235L -53 257L 51 230C 107 168 172 80 231 -5C 285 -80 370 -212 412 -288C 437 -332 448 -366 448 -394C 447 -427 431 -449 408 -449C 391 -449 373 -437 366 -421C 362 -414 361 -404 364 -397C 369 -385 375 -370 376 -350C 376 -277 284 -141 241 -75Z" id="f003-glyph-0-90"/><path d="M 189 -283L 200 -333C 215 -403 214 -449 188 -449C 161 -449 99 -407 48 -351L 62 -328C 91 -355 124 -376 133 -376C 140 -376 141 -366 135 -332C 116 -226 87 -103 62 4L 69 11C 92 4 119 -3 140 -7C 153 -73 165 -135 180 -202C 199 -247 230 -294 252 -325C 275 -357 291 -368 303 -368C 314 -368 325 -362 336 -351C 342 -346 350 -345 358 -351C 368 -358 378 -369 385 -381C 393 -394 393 -411 386 -423C 377 -437 360 -449 343 -449C 303 -449 244 -381 192 -283Z" id="f003-glyph-0-83"/><path d="M 466 -108C 438 -81 406 -62 396 -62C 389 -63 387 -70 393 -99L 445 -322C 470 -430 443 -449 418 -449C 399 -449 376 -442 350 -428C 305 -404 231 -351 165 -262L 163 -262L 252 -677C 258 -704 257 -712 248 -712C 235 -712 181 -685 103 -677L 99 -652L 128 -651C 167 -651 172 -648 162 -595C 122 -391 78 -189 35 4L 42 12C 64 4 90 -2 113 -7C 122 -55 140 -144 151 -189C 199 -276 316 -388 362 -388C 378 -388 383 -370 370 -316L 317 -85C 301 -16 308 12 334 12C 363 12 425 -23 478 -84Z" id="f003-glyph-0-73"/><path d="M 221 -640C 187 -640 167 -607 168 -581C 168 -555 185 -538 208 -538C 239 -538 262 -565 261 -595C 261 -619 247 -640 221 -640ZM 223 -109C 199 -88 165 -62 153 -62C 147 -62 145 -70 151 -94L 219 -369C 231 -416 232 -448 209 -448C 183 -448 113 -407 58 -353L 70 -331C 101 -356 131 -373 139 -373C 145 -373 145 -363 140 -341L 77 -86C 57 -4 71 12 91 12C 125 12 202 -47 236 -87Z" id="f003-glyph-0-74"/><path d="M 470 -112C 443 -85 411 -63 399 -63C 392 -63 391 -72 395 -95C 430 -290 472 -484 519 -684C 523 -704 521 -712 512 -712C 497 -712 443 -686 359 -677L 356 -652L 388 -652C 432 -652 435 -648 426 -602L 393 -438C 369 -448 348 -449 334 -449C 287 -449 204 -413 157 -372C 84 -309 41 -202 41 -108C 41 -28 73 12 106 12C 134 12 166 -4 203 -34C 238 -61 290 -105 335 -165L 337 -166L 319 -81C 303 -4 317 12 337 12C 366 12 431 -26 484 -89ZM 155 -53C 138 -53 124 -76 124 -127C 124 -211 164 -337 231 -385C 248 -398 270 -406 300 -406C 330 -406 366 -394 381 -380L 349 -237C 316 -177 206 -53 155 -53Z" id="f003-glyph-0-69"/><path d="M 480 -109C 451 -80 424 -63 415 -63C 408 -63 407 -72 413 -99C 429 -168 446 -238 462 -306C 492 -434 464 -449 439 -449C 420 -449 399 -442 373 -426C 331 -402 257 -344 189 -251L 187 -251L 208 -338C 226 -415 222 -449 200 -449C 172 -449 114 -412 59 -354L 73 -330C 98 -354 128 -375 137 -375C 143 -375 146 -367 139 -335C 114 -224 85 -105 57 4L 63 11C 82 4 109 -3 135 -8C 147 -69 162 -128 174 -177C 224 -262 340 -385 384 -385C 399 -385 405 -371 391 -314C 374 -240 357 -166 339 -92C 320 -15 330 12 354 12C 380 12 436 -20 495 -85Z" id="f003-glyph-0-79"/><path d="M 113 12C 194 12 294 -63 294 -139C 294 -182 270 -211 211 -256C 174 -284 145 -309 145 -345C 145 -379 170 -401 199 -401C 233 -401 257 -381 277 -356C 283 -347 290 -345 299 -351C 314 -361 324 -376 324 -393C 324 -419 290 -449 247 -449C 214 -449 166 -427 135 -400C 95 -366 83 -333 83 -304C 83 -253 125 -216 170 -182C 218 -145 229 -123 229 -98C 229 -66 202 -38 162 -38C 129 -38 92 -60 66 -99C 61 -106 54 -108 41 -102C 24 -92 11 -77 12 -60C 12 -25 66 12 113 12Z" id="f003-glyph-0-84"/><path d="M 336 -121C 309 -93 248 -47 197 -47C 154 -47 127 -84 127 -155C 127 -223 146 -291 170 -335C 190 -372 218 -402 253 -402C 284 -402 308 -388 329 -359C 335 -350 342 -348 351 -353C 373 -365 384 -384 383 -399C 382 -424 350 -449 307 -449C 258 -449 188 -411 148 -374C 83 -316 44 -218 44 -134C 44 -39 87 12 151 12C 210 12 290 -28 351 -99Z" id="f003-glyph-0-68"/><path d="M 481 -112C 455 -88 416 -61 405 -61C 397 -62 394 -71 403 -106C 426 -205 445 -288 466 -374C 477 -418 473 -440 463 -446C 433 -439 392 -431 330 -431L 219 -431C 245 -579 287 -673 360 -673C 394 -673 413 -651 421 -613C 424 -599 434 -594 456 -601C 477 -606 491 -627 492 -647C 492 -667 471 -712 395 -712C 339 -712 286 -681 249 -647C 192 -594 159 -512 141 -431L 80 -431L 52 -403L 56 -393L 134 -393C 117 -292 104 -209 81 -77C 48 116 24 161 9 175C -1 186 -14 194 -34 194C -54 194 -77 184 -90 172C -98 167 -103 166 -111 172C -127 186 -140 204 -140 216C -140 239 -110 256 -82 256C -57 256 -13 241 34 191C 89 132 121 57 159 -122C 180 -217 191 -279 211 -393L 342 -393C 391 -393 396 -387 383 -329C 364 -246 346 -164 327 -86C 306 -1 325 12 344 12C 384 12 465 -52 495 -91Z" id="f003-glyph-0-277"/><path d="M 619 -670Q 619 -658 610.5 -645.0Q 602 -632 592 -625Q 579 -615 567 -627Q 531 -665 501 -665Q 470 -665 446 -615Q 424 -566 401 -430L 521 -430L 501 -399L 394 -387Q 371 -244 337 -94Q 323 -31 309.5 15.0Q 296 61 282 90Q 253 154 207 200Q 147 261 93 261Q 81 261 68.5 257.0Q 56 253 46.0 246.0Q 36 239 29.5 231.0Q 23 223 23 215Q 23 198 54 171Q 65 163 74 172Q 83 183 104.0 191.0Q 125 199 140 199Q 168 199 187 180Q 220 147 258 -73L 312 -388L 222 -388L 219 -400L 250 -430L 320 -430Q 348 -568 410 -634Q 444 -670 484.0 -691.0Q 524 -712 555 -712Q 580 -712 599.5 -698.5Q 619 -685 619 -670Z" id="f003-glyph-1-3728"/><path d="M 282 170Q 176 100 123.0 -13.0Q 70 -126 70 -270L 70 -271Q 70 -414 123.0 -526.0Q 176 -638 282 -710L 300 -686Q 226 -624 184 -512Q 143 -397 143 -270Q 143 -144 184 -27Q 226 85 300 147L 282 170Z" id="f003-glyph-1-12"/><path d="M 496 -358Q 488 -358 481 -368Q 470 -382 456 -382Q 434 -382 389 -332Q 363 -303 346.0 -283.0Q 329 -263 321 -250L 358 -148Q 389 -60 413 -60Q 437 -60 491 -119L 507 -96Q 474 -47 438.0 -17.5Q 402 12 373 12Q 354 12 335.5 -8.0Q 317 -28 306 -61L 265 -177Q 193 -71 150 -29Q 106 12 71 12Q 50 12 36.5 -2.0Q 23 -16 23 -39Q 23 -55 36.5 -70.5Q 50 -86 65 -86Q 77 -86 82 -75Q 86 -65 107 -65Q 147 -65 254 -212L 214 -320Q 192 -378 178 -378Q 157 -378 111 -321L 92 -341Q 173 -448 217 -448Q 234 -448 246 -427Q 253 -417 262.5 -395.0Q 272 -373 286 -338L 308 -283Q 343 -331 370.0 -362.5Q 397 -394 416 -411Q 456 -448 491 -448Q 510 -448 523.0 -434.5Q 536 -421 536 -404Q 536 -387 522.5 -372.5Q 509 -358 496 -358Z" id="f003-glyph-1-3745"/><path d="M 45 147Q 121 86 161 -27Q 203 -139 203 -270Q 203 -400 161 -513Q 120 -623 45 -686L 64 -710Q 275 -566 275 -270Q 275 26 64 170L 45 147Z" id="f003-glyph-1-13"/><path d="M 558 -587Q 558 -523 504 -472Q 482 -452 456.5 -433.0Q 431 -414 401 -395Q 545 -344 545 -221Q 545 -166 501 -113Q 457 -58 397 -26Q 320 16 266 16Q 236 16 213.0 -3.5Q 190 -23 181 -51L 192 -69Q 242 -40 300 -40Q 378 -40 419.0 -81.5Q 460 -123 460 -192Q 460 -258 416.0 -299.5Q 372 -341 296 -350L 318 -397Q 351 -398 383 -418Q 479 -479 479 -575Q 479 -617 455.0 -642.5Q 431 -668 393 -668Q 328 -668 287 -585Q 274 -561 265 -522Q 254 -484 244.5 -442.5Q 235 -401 227 -356Q 198 -204 181.0 -110.0Q 164 -16 159 24Q 133 215 124 224Q 99 255 27 261L 23 235Q 42 226 71 65L 148 -348Q 159 -408 172.5 -454.0Q 186 -500 200 -535Q 230 -602 284 -650Q 355 -712 432 -712Q 459 -712 482.0 -703.0Q 505 -694 522.0 -677.5Q 539 -661 548.5 -638.0Q 558 -615 558 -587Z" id="f003-glyph-1-2845"/><path d="M 524 0L 315 0L 315 -26Q 360 -31 370 -44Q 381 -58 381 -109L 381 -276Q 381 -390 290 -390Q 239 -390 181 -339L 181 -104Q 181 -52 191 -42Q 201 -31 246 -26L 246 0L 29 0L 29 -26Q 80 -31 91 -43Q 102 -57 102 -104L 102 -310Q 102 -358 92 -368Q 83 -380 42 -388L 42 -411Q 128 -426 181 -451L 181 -372Q 203 -388 220.0 -399.5Q 237 -411 248 -419Q 294 -449 331 -449Q 391 -449 425.5 -409.0Q 460 -369 460 -297L 460 -104Q 460 -52 470 -42Q 482 -30 524 -26L 524 0Z" id="f003-glyph-1-82"/><path d="M 395 -84Q 356 -36 311.5 -12.0Q 267 12 232 12Q 143 12 90 -50Q 37 -112 37 -201Q 37 -304 103 -376Q 170 -449 249 -449L 250 -449Q 311 -449 355 -402Q 400 -355 400 -297Q 400 -281 395.5 -274.5Q 391 -268 377 -265Q 353 -260 288.5 -256.0Q 224 -252 115 -248Q 117 -154 161 -104Q 206 -56 265 -56Q 324 -56 380 -106L 395 -84ZM 225 -412Q 189 -412 160.0 -379.0Q 131 -346 120 -289Q 203 -289 290 -292Q 304 -292 309.0 -296.5Q 314 -301 314 -312Q 315 -354 290.0 -383.0Q 265 -412 225 -412Z" id="f003-glyph-1-73"/><path d="M 516 -437L 696 -437L 696 -411Q 660 -407 645 -392Q 632 -379 617 -337Q 581 -241 497 11L 468 11Q 454 -26 437.0 -69.5Q 420 -113 398 -167L 346 -300L 291 -159L 227 11L 199 11Q 165 -100 136.5 -188.5Q 108 -277 83 -346Q 69 -386 57 -395Q 42 -407 9 -411L 9 -437L 216 -437L 216 -411Q 169 -403 162 -394Q 155 -384 165 -350L 239 -118L 241 -118L 357 -432L 383 -432Q 422 -321 503 -114L 505 -114Q 554 -270 574 -345Q 584 -382 574 -393Q 565 -404 516 -411L 516 -437Z" id="f003-glyph-1-91"/><path d="M 539 -650L 775 -650L 769 -622Q 705 -616 687 -606Q 677 -601 661.5 -587.5Q 646 -574 626 -552L 451 -361L 576 -118Q 604 -61 624 -47Q 643 -34 707 -28L 702 0L 427 0L 434 -28L 469 -32Q 500 -36 506.0 -44.0Q 512 -52 500 -78L 392 -294Q 252 -129 215 -75Q 199 -53 204.5 -44.5Q 210 -36 246 -31L 268 -28L 261 0L 17 0L 25 -28Q 77 -32 100 -43Q 113 -50 129.5 -63.0Q 146 -76 167 -96Q 193 -121 244.0 -178.5Q 295 -236 373 -327L 263 -542Q 238 -592 219 -605Q 200 -618 147 -622L 153 -650L 403 -650L 397 -622L 370 -618Q 355 -615 346.5 -613.0Q 338 -611 334.5 -607.5Q 331 -604 332.5 -598.0Q 334 -592 338 -581Q 353 -543 433 -391Q 465 -426 503.0 -472.0Q 541 -518 587 -576Q 602 -597 597.0 -605.5Q 592 -614 564 -618L 534 -622L 539 -650Z" id="f003-glyph-1-3720"/><path d="M 597 -650L 865 -650L 857 -622Q 795 -617 780 -602Q 765 -588 751 -520L 677 -126Q 665 -66 676 -49Q 688 -32 752 -28L 746 0L 473 0L 481 -28Q 545 -32 563 -49Q 582 -65 592 -125L 628 -323L 248 -323L 211 -126Q 201 -62 211 -47Q 224 -32 291 -28L 285 0L 17 0L 23 -28Q 83 -34 98 -49Q 115 -66 125 -126L 200 -520Q 213 -582 202 -601Q 192 -617 125 -622L 133 -650L 396 -650L 390 -622Q 332 -618 314 -601Q 297 -584 284 -520L 258 -367L 635 -367L 664 -520Q 676 -588 666 -601Q 655 -615 592 -622L 597 -650Z" id="f003-glyph-1-3704"/><path d="M 456 -225L 456 -178L 360 -178L 360 -106Q 360 -55 372 -43Q 387 -31 445 -27L 445 0L 189 0L 189 -27Q 254 -31 267 -44Q 280 -56 280 -106L 280 -178L 20 -178L 20 -206Q 201 -477 320 -632L 360 -632L 360 -225L 456 -225ZM 280 -225L 280 -520L 278 -520Q 165 -363 82 -225L 280 -225Z" id="f003-glyph-1-24"/><path d="M 535 -373L 535 -323L 52 -323L 52 -373L 535 -373ZM 535 -188L 535 -138L 52 -138L 52 -188L 535 -188Z" id="f003-glyph-1-33"/><path d="M 546 -430Q 539 -411 529.5 -376.5Q 520 -342 508 -290Q 496 -233 486.5 -181.0Q 477 -129 470 -81Q 442 113 314 208Q 240 261 166 261Q 103 261 63 224Q 23 187 23 155Q 23 128 49 107Q 68 92 74 110Q 87 155 121.5 180.0Q 156 205 208 205Q 262 205 291 184Q 321 160 341 119Q 351 98 362.0 63.0Q 373 28 384 -21Q 392 -58 399.0 -98.5Q 406 -139 413 -184L 411 -184Q 354 -100 262 -32Q 203 12 160 12Q 135 12 115.5 -19.5Q 96 -51 96 -103Q 96 -173 128 -248Q 161 -320 213 -366Q 253 -402 313 -425Q 377 -448 430 -448Q 440 -448 456.0 -446.0Q 472 -444 495 -440Q 525 -434 539 -434L 546 -430ZM 456 -386Q 420 -402 375 -402Q 341 -402 311 -389Q 270 -373 226 -292Q 209 -257 194 -206Q 182 -156 182 -120Q 182 -56 212 -56Q 233 -56 264.5 -77.0Q 296 -98 325 -129Q 363 -171 386.5 -201.5Q 410 -232 420 -252Q 445 -313 456 -386Z" id="f003-glyph-1-3729"/><path d="M 773 -650L 1004 -650L 998 -621Q 944 -615 927 -601Q 908 -587 876 -527L 605 12L 572 12L 474 -494L 471 -494L 213 12L 183 12L 105 -520Q 95 -587 83 -600Q 72 -613 17 -621L 23 -650L 264 -650L 256 -621L 230 -616Q 196 -610 189 -600Q 182 -590 186 -553L 245 -128L 249 -128L 500 -638L 531 -638L 633 -128L 635 -128Q 785 -426 833 -551Q 847 -592 841 -599Q 836 -608 794 -616L 766 -621L 773 -650Z" id="f003-glyph-1-3719"/><path d="M 142 -650L 609 -650L 590 -488L 560 -486Q 562 -559 546 -580Q 536 -598 515.5 -606.0Q 495 -614 443 -614L 355 -614Q 325 -614 318 -607Q 310 -601 306 -571L 265 -359L 368 -359L 369 -359L 370 -359L 371 -359L 372 -359L 373 -359L 374 -359L 375 -359Q 410 -361 430.0 -364.5Q 450 -368 457 -372Q 472 -383 492 -427Q 493 -432 495 -434L 524 -434L 484 -236L 454 -236Q 455 -294 442 -306Q 429 -319 357 -319L 258 -319L 228 -152Q 211 -65 231 -51Q 249 -36 342 -36Q 372 -36 393.5 -37.5Q 415 -39 431.5 -43.0Q 448 -47 460.5 -53.5Q 473 -60 485 -70Q 498 -80 516 -107L 530 -128L 559 -173L 588 -163Q 534 -29 517 0L 17 0L 23 -28Q 91 -33 106 -45Q 124 -60 134 -119L 211 -528Q 222 -590 210 -603Q 200 -617 132 -622L 142 -650Z" id="f003-glyph-1-3701"/><path d="M 384 0L 109 0L 109 -27Q 176 -31 190 -45Q 205 -58 205 -114L 205 -499Q 205 -535 197 -546Q 190 -555 157 -557L 109 -559L 109 -583Q 199 -598 287 -635L 287 -114Q 287 -59 301 -45Q 316 -32 384 -27L 384 0Z" id="f003-glyph-1-21"/><path d="M 440 -131L 405 0L 32 0L 32 -23Q 89 -80 128.5 -122.0Q 168 -164 193 -193Q 257 -268 287.5 -324.0Q 318 -380 318 -435Q 318 -498 287.0 -533.0Q 256 -568 201 -568Q 125 -568 64 -475L 42 -495L 99 -576Q 155 -635 234 -635Q 302 -635 352 -588Q 402 -541 402 -466Q 402 -404 372 -352Q 358 -327 332.5 -294.5Q 307 -262 270 -222L 129 -73L 315 -73Q 357 -73 373 -83Q 389 -93 412 -140L 440 -131Z" id="f003-glyph-1-22"/><path d="M 141 -650L 414 -650L 408 -622Q 346 -618 329 -604Q 314 -590 302 -533L 225 -117Q 214 -58 225 -45Q 235 -33 303 -28L 298 0L 23 0L 31 -28Q 93 -32 110 -46Q 128 -62 138 -117L 218 -533Q 228 -590 216 -604Q 202 -617 135 -622L 141 -650Z" id="f003-glyph-1-3705"/><path d="M 112 -174Q 88 -174 72.0 -190.5Q 56 -207 56 -233Q 56 -257 72.0 -273.5Q 88 -290 113 -290Q 137 -290 153.5 -273.5Q 170 -257 170 -233Q 170 -207 153.5 -190.5Q 137 -174 112 -174Z" id="f003-glyph-1-121"/></defs>

	
	<g>
		<circle fill="#FFFFFF" clip-rule="evenodd" r="8.4730501" cx="64.129303" fill-rule="evenodd" cy="241.6373901"/>
		
			<circle stroke-linecap="round" fill="none" stroke-linejoin="round" r="8.4730501" cx="64.129303" cy="241.6373901" stroke="#000000" stroke-width="0.75" stroke-miterlimit="10"/>
		<path fill="#FFFFFF" clip-rule="evenodd" d="M129.0880432,241.6373901    c0-4.678894,3.7940979-8.473114,8.4729919-8.473114c4.6829071,0,8.4730988,3.79422,8.4730988,8.473114    s-3.7901917,8.4730072-8.4730988,8.4730072C132.8821411,250.1103973,129.0880432,246.3162842,129.0880432,241.6373901z" fill-rule="evenodd"/>
		
			<path stroke-linecap="round" fill="none" stroke-linejoin="round" d="    M129.0880432,241.6373901c0-4.678894,3.7940979-8.473114,8.4729919-8.473114c4.6829071,0,8.4730988,3.79422,8.4730988,8.473114    s-3.7901917,8.4730072-8.4730988,8.4730072C132.8821411,250.1103973,129.0880432,246.3162842,129.0880432,241.6373901z" stroke="#000000" stroke-width="0.75" stroke-miterlimit="10"/>
		<circle fill="#FFFFFF" clip-rule="evenodd" r="8.4730539" cx="98.0214844" fill-rule="evenodd" cy="241.6373901"/>
		
			<circle stroke-linecap="round" fill="none" stroke-linejoin="round" r="8.4730539" cx="98.0214844" cy="241.6373901" stroke="#000000" stroke-width="0.75" stroke-miterlimit="10"/>
		<circle fill="#FFFFFF" clip-rule="evenodd" r="8.473053" cx="53.3964844" fill-rule="evenodd" cy="176.6785889"/>
		
			<circle stroke-linecap="round" fill="none" stroke-linejoin="round" r="8.473053" cx="53.3964844" cy="176.6785889" stroke="#000000" stroke-width="0.75" stroke-miterlimit="10"/>
		<circle fill="#FFFFFF" clip-rule="evenodd" r="8.4730501" cx="155.0730896" fill-rule="evenodd" cy="176.6785889"/>
		
			<circle stroke-linecap="round" fill="none" stroke-linejoin="round" r="8.4730501" cx="155.0730896" cy="176.6785889" stroke="#000000" stroke-width="0.75" stroke-miterlimit="10"/>
		<path fill="#FFFFFF" clip-rule="evenodd" d="M86.7227402,176.6785889    c0-4.678894,3.7941971-8.4729919,8.4730988-8.4729919c4.6828995,0,8.4729996,3.7940979,8.4729996,8.4729919    c0,4.6790009-3.7901001,8.473114-8.4729996,8.473114C90.5169373,185.1517029,86.7227402,181.3575897,86.7227402,176.6785889z" fill-rule="evenodd"/>
		
			<path stroke-linecap="round" fill="none" stroke-linejoin="round" d="    M86.7227402,176.6785889c0-4.678894,3.7941971-8.4729919,8.4730988-8.4729919    c4.6828995,0,8.4729996,3.7940979,8.4729996,8.4729919c0,4.6790009-3.7901001,8.473114-8.4729996,8.473114    C90.5169373,185.1517029,86.7227402,181.3575897,86.7227402,176.6785889z" stroke="#000000" stroke-width="0.75" stroke-miterlimit="10"/>
		<path fill="#FFFFFF" clip-rule="evenodd" d="M44.3615456,125.8402786    c0-4.6788788,3.7900963-8.4729996,8.4729996-8.4729996c4.678894,0,8.4730949,3.7941208,8.4730949,8.4729996    c0,4.6789169-3.7942009,8.4731216-8.4730949,8.4731216C48.1516418,134.3134003,44.3615456,130.5191956,44.3615456,125.8402786z" fill-rule="evenodd"/>
		
			<path stroke-linecap="round" fill="none" stroke-linejoin="round" d="    M44.3615456,125.8402786c0-4.6788788,3.7900963-8.4729996,8.4729996-8.4729996    c4.678894,0,8.4730949,3.7941208,8.4730949,8.4729996c0,4.6789169-3.7942009,8.4731216-8.4730949,8.4731216    C48.1516418,134.3134003,44.3615456,130.5191956,44.3615456,125.8402786z" stroke="#000000" stroke-width="0.75" stroke-miterlimit="10"/>
		<circle fill="#FFFFFF" clip-rule="evenodd" r="8.4730501" cx="154.5072021" fill-rule="evenodd" cy="128.6660156"/>
		
			<circle stroke-linecap="round" fill="none" stroke-linejoin="round" r="8.4730501" cx="154.5072021" cy="128.6660156" stroke="#000000" stroke-width="0.75" stroke-miterlimit="10"/>
		<circle fill="#FFFFFF" clip-rule="evenodd" r="8.4730501" cx="92.3740845" fill-rule="evenodd" cy="125.8402786"/>
		
			<circle stroke-linecap="round" fill="none" stroke-linejoin="round" r="8.4730501" cx="92.3740845" cy="125.8402786" stroke="#000000" stroke-width="0.75" stroke-miterlimit="10"/>
		<path fill="#FFFFFF" clip-rule="evenodd" d="M44.3615456,77.8276978    c0-4.6789017,3.7900963-8.4729996,8.4729996-8.4729996c4.678894,0,8.4730949,3.7940979,8.4730949,8.4729996    s-3.7942009,8.4730988-8.4730949,8.4730988C48.1516418,86.3007965,44.3615456,82.5065994,44.3615456,77.8276978z" fill-rule="evenodd"/>
		
			<path stroke-linecap="round" fill="none" stroke-linejoin="round" d="    M44.3615456,77.8276978c0-4.6789017,3.7900963-8.4729996,8.4729996-8.4729996c4.678894,0,8.4730949,3.7940979,8.4730949,8.4729996    s-3.7942009,8.4730988-8.4730949,8.4730988C48.1516418,86.3007965,44.3615456,82.5065994,44.3615456,77.8276978z" stroke="#000000" stroke-width="0.75" stroke-miterlimit="10"/>
		<circle fill="#FFFFFF" clip-rule="evenodd" r="8.4730501" cx="154.5072021" fill-rule="evenodd" cy="77.8277054"/>
		
			<circle stroke-linecap="round" fill="none" stroke-linejoin="round" r="8.4730501" cx="154.5072021" cy="77.8277054" stroke="#000000" stroke-width="0.75" stroke-miterlimit="10"/>
		<circle fill="#FFFFFF" clip-rule="evenodd" r="8.4730501" cx="92.3740845" fill-rule="evenodd" cy="77.8277054"/>
		
			<circle stroke-linecap="round" fill="none" stroke-linejoin="round" r="8.4730501" cx="92.3740845" cy="77.8277054" stroke="#000000" stroke-width="0.75" stroke-miterlimit="10"/>
		<circle fill="#FFFFFF" clip-rule="evenodd" r="8.4730501" cx="64.129303" fill-rule="evenodd" cy="32.6367874"/>
		
			<circle stroke-linecap="round" fill="none" stroke-linejoin="round" r="8.4730501" cx="64.129303" cy="32.6367874" stroke="#000000" stroke-width="0.75" stroke-miterlimit="10"/>
		<path fill="#FFFFFF" clip-rule="evenodd" d="M129.0880432,32.6367989    c0-4.6788998,3.7940979-8.4730988,8.4729919-8.4730988c4.6829071,0,8.4730988,3.794199,8.4730988,8.4730988    s-3.7901917,8.4729996-8.4730988,8.4729996C132.8821411,41.1097984,129.0880432,37.3157005,129.0880432,32.6367989z" fill-rule="evenodd"/>
		
			<path stroke-linecap="round" fill="none" stroke-linejoin="round" d="    M129.0880432,32.6367989c0-4.6788998,3.7940979-8.4730988,8.4729919-8.4730988    c4.6829071,0,8.4730988,3.794199,8.4730988,8.4730988s-3.7901917,8.4729996-8.4730988,8.4729996    C132.8821411,41.1097984,129.0880432,37.3157005,129.0880432,32.6367989z" stroke="#000000" stroke-width="0.75" stroke-miterlimit="10"/>
		<circle fill="#FFFFFF" clip-rule="evenodd" r="8.4730539" cx="98.0214844" fill-rule="evenodd" cy="32.6367874"/>
		
			<circle stroke-linecap="round" fill="none" stroke-linejoin="round" r="8.4730539" cx="98.0214844" cy="32.6367874" stroke="#000000" stroke-width="0.75" stroke-miterlimit="10"/>
		<g>
			<g>
				
					<line stroke-linecap="round" fill="none" x1="64.1293411" x2="53.4978409" y1="233.1642761" y2="186.4391022" stroke-linejoin="round" stroke="#000000" stroke-width="0.5"/>
				<g>
					<path d="M51.4556389,188.8592834c0.889801-0.8428955,1.482502-1.9747925,1.8817024-3.1256866       c0.8504982,0.8771057,1.8950996,1.5942993,3.0489006,2.003891l0.1383972,0.6084137       c-1.1226997-0.4161072-2.1464996-0.9914093-3.001091-1.7938995c-0.4328079,1.0954895-1.1100006,2.089386-1.9272079,2.9257965       L51.4556389,188.8592834z"/>
				</g>
			</g>
		</g>
		<g>
			<g>
				<path fill="none" d="      M98.0215454,233.1642761l-19.8834076-24.3071747c0.402504-0.3308258,0.4583054-0.9246063,0.1315002-1.3271027      c-0.3307953-0.4026031-0.9245987-0.4584045-1.3270874-0.1315002l-18.549511-22.4367981" stroke-width="0.5" stroke-linejoin="round" stroke-linecap="round" stroke="#000000"/>
				<g>
					<path d="M57.6593399,188.0422821c0.4149017-1.1533813,0.4345016-2.4308929,0.2725983-3.6382904       c1.1544037,0.4001007,2.4100037,0.5702057,3.6246071,0.4161987l0.3975945,0.4810028       c-1.1898003,0.1340942-2.3628998,0.0814056-3.4874001-0.2503052c0.1068993,1.1730042-0.0501938,2.365387-0.4033012,3.4802094       L57.6593399,188.0422821z"/>
				</g>
			</g>
		</g>
		<g>
			<g>
				<path fill="none" d="      M137.5610352,233.1642761l-21.134697-14.3036804c0.2909012-0.4304962,0.1792984-1.0163116-0.2510986-1.307312      c-0.4305038-0.2908936-1.016304-0.1792908-1.3073044,0.2511139l-17.7072983-11.9802094      c0.2949066-0.4303894,0.1792984-1.0162964-0.251091-1.3071899c-0.4304047-0.2949982-1.016304-0.1793976-1.3072052,0.2510986      l-11.155304-7.5525055c0.2910004-0.4303894,0.1794052-1.0161896-0.2509995-1.3071899      c-0.4304886-0.2909088-1.0162964-0.179306-1.3072968,0.2550964l-21.6633987-14.6634064" stroke-width="0.5" stroke-linejoin="round" stroke-linecap="round" stroke="#000000"/>
				<g>
					<path d="M61.3871384,184.6626892c0.0740013-1.2234955-0.2663002-2.4549866-0.7609978-3.5681915       c1.2202988,0.059494,2.4730988-0.1302185,3.5954094-0.6193085l0.5167923,0.3498077       c-1.1041031,0.4629974-2.2447968,0.7422791-3.417202,0.7400055c0.4323006,1.0956879,0.6166992,2.2840881,0.591301,3.453186       L61.3871384,184.6626892z"/>
				</g>
			</g>
		</g>
		<g>
			<g>
				
					<line stroke-linecap="round" fill="none" x1="64.1293411" x2="90.2390366" y1="233.1642761" y2="184.4185944" stroke-linejoin="round" stroke="#000000" stroke-width="0.5"/>
				<g>
					<path d="M87.1099396,184.9055939c1.2246094-0.0525055,2.4144974-0.5180054,3.4707031-1.1248932       c0.0666962,1.2200012,0.3845978,2.446579,0.9867935,3.5124969l-0.2945938,0.5500793       c-0.574501-1.0505829-0.969902-2.1562805-1.088501-3.3226776c-1.0452042,0.5429993-2.2083054,0.8488922-3.3737946,0.9440918       L87.1099396,184.9055939z"/>
				</g>
			</g>
		</g>
		<g>
			<g>
				
					<line stroke-linecap="round" fill="none" x1="98.0215454" x2="95.478241" y1="233.1642761" y2="186.4561005" stroke-linejoin="round" stroke="#000000" stroke-width="0.5"/>
				<g>
					<path d="M93.0573425,188.4974976c1.0192032-0.6809082,1.7942047-1.696701,2.3815994-2.7639008       c0.6906052,1.0077972,1.5992966,1.8908997,2.6676025,2.4889984l0.0338974,0.6230927       c-1.0365067-0.5992889-1.9487-1.3388977-2.6558914-2.2739868c-0.6112137,1.0067902-1.4462128,1.8723907-2.3927078,2.5590973       L93.0573425,188.4974976z"/>
				</g>
			</g>
		</g>
		<g>
			<g>
				
					<line stroke-linecap="round" fill="none" x1="137.5610352" x2="100.6445465" y1="233.1642761" y2="184.0879974" stroke-linejoin="round" stroke="#000000" stroke-width="0.5"/>
				<g>
					<path d="M99.7702408,187.1315918c0.4673996-1.1331024,0.5456009-2.4084015,0.4393082-3.6219025       c1.1347885,0.452713,2.3812866,0.6802063,3.6016922,0.5821991l0.3750992,0.4986115       c-1.1947021,0.0793915-2.3642044-0.0270996-3.4722977-0.4101105c0.0529938,1.176712-0.1587067,2.360611-0.5624924,3.4580994       L99.7702408,187.1315918z"/>
				</g>
			</g>
		</g>
		<g>
			<g>
				<path fill="none" d="      M64.1293411,233.1642761l22.055397-13.0004883c-0.2669983-0.4502869-0.1156006-1.0242004,0.3308105-1.2912903      c0.4502869-0.2630005,1.0241928-0.115509,1.2912903,0.3347778l8.2697983-4.874176      c-0.2669983-0.4504089-0.1156006-1.0281982,0.3308029-1.2913055c0.4503021-0.2630005,1.0242004-0.115509,1.2911987,0.3348083      l4.8663025-2.8695068c-0.2630997-0.4503937-0.1156006-1.0283051,0.3306961-1.2913055      c0.4504013-0.2630005,1.0283051-0.1156006,1.2912979,0.3348083l10.0035019-5.8984985      c-0.2630005-0.4464111-0.1156006-1.0242004,0.3308029-1.2873077c0.4503098-0.2669983,1.0281982-0.115509,1.2913055,0.3308105      l32.5442963-18.9886017" stroke-width="0.5" stroke-linejoin="round" stroke-linecap="round" stroke="#000000"/>
				<g>
					<path d="M145.4357452,182.4841003c1.0708923,0.5961761,2.3283997,0.8223877,3.5460968,0.8581848       c-0.5818024,1.0744171-0.9530029,2.2859039-0.9978027,3.5094147l-0.5388947,0.3144989       c0.0602875-1.1959229,0.3022919-2.3450012,0.8116913-3.4009094c-1.1748047-0.0844879-2.326004-0.4325867-3.3688965-0.9614868       L145.4357452,182.4841003z"/>
				</g>
			</g>
		</g>
		<g>
			<g>
				<path fill="none" d="      M98.0215454,233.1642761l23.4900894-19.7677765c-0.3346939-0.3984985-0.2828979-0.9923096,0.1156006-1.3271027      c0.3986053-0.3348083,0.9924011-0.2830048,1.3272018,0.1116028l31.3171997-26.0465088" stroke-width="0.5" stroke-linejoin="round" stroke-linecap="round" stroke="#000000"/>
				<g>
					<path d="M151.1889343,185.4098969c1.1546173,0.411499,2.4322052,0.4272919,3.6390991,0.2619019       c-0.396698,1.1555939-0.5630951,2.4116974-0.4055939,3.6257935l-0.4797974,0.3990021       c-0.1376038-1.1893158-0.0884094-2.3627014,0.240097-3.4880981c-1.172699,0.1103058-2.365509-0.0433044-3.4813995-0.3930054       L151.1889343,185.4098969z"/>
				</g>
			</g>
		</g>
		<g>
			<g>
				
					<line stroke-linecap="round" fill="none" x1="137.5610352" x2="159.7653351" y1="233.1642761" y2="184.654892" stroke-linejoin="round" stroke="#000000" stroke-width="0.5"/>
				<g>
					<path d="M156.6728363,185.3363953c1.2189026-0.1289063,2.3773956-0.6678009,3.3937073-1.3394928       c0.1427002,1.2134857,0.5365906,2.4177856,1.2041931,3.4440002l-0.2597046,0.5674896       c-0.6389923-1.0126038-1.1026001-2.0915985-1.2937927-3.248291c-1.0093079,0.6071777-2.1511078,0.9850922-3.3083954,1.1529999       L156.6728363,185.3363953z"/>
				</g>
			</g>
		</g>
		<g>
			<g>
				
					<line stroke-linecap="round" fill="none" x1="64.1293411" x2="64.1293411" y1="280.199585" y2="251.1082001" stroke-linejoin="round" stroke="#000000" stroke-width="0.5"/>
				<g>
					<path d="M61.6009407,253.0148926c1.0546989-0.6244965,1.8838005-1.5966949,2.5284004-2.6302948       c0.634697,1.0438995,1.4941025,1.9749908,2.5282974,2.6302948v0.6240082       c-1.0025024-0.6548004-1.8730927-1.4429016-2.5282974-2.4150085c-0.6651001,0.9721069-1.5459023,1.7910004-2.5284004,2.4253082       V253.0148926z"/>
				</g>
			</g>
		</g>
		<g>
			<g>
				
					<line stroke-linecap="round" fill="none" x1="98.0215454" x2="98.0215454" y1="280.199585" y2="251.1082001" stroke-linejoin="round" stroke="#000000" stroke-width="0.5"/>
				<g>
					<path d="M95.4931412,253.0148926c1.0546951-0.6244965,1.8837967-1.5966949,2.5284042-2.6302948       c0.634697,1.0438995,1.4940948,1.9749908,2.5282898,2.6302948v0.6240082       c-1.0024948-0.6548004-1.8730927-1.4429016-2.5282898-2.4150085c-0.6651077,0.9721069-1.5459061,1.7910004-2.5284042,2.4253082       V253.0148926z"/>
				</g>
			</g>
		</g>
		<g>
			<g>
				
					<line stroke-linecap="round" fill="none" x1="137.5610352" x2="137.5610352" y1="280.199585" y2="251.1082001" stroke-linejoin="round" stroke="#000000" stroke-width="0.5"/>
				<g>
					<path d="M135.0327454,253.0148926c1.0546875-0.6244965,1.8838043-1.5966949,2.5282898-2.6302948       c0.6347961,1.0438995,1.4942017,1.9749908,2.5283966,2.6302948v0.6240082       c-1.0024872-0.6548004-1.8730927-1.4429016-2.5283966-2.4150085c-0.6649933,0.9721069-1.5457916,1.7910004-2.5282898,2.4253082       V253.0148926z"/>
				</g>
			</g>
		</g>
		<g>
			<g>
				
					<line stroke-linecap="round" fill="none" x1="53.3965454" x2="52.9128418" y1="168.2055969" y2="135.0370026" stroke-linejoin="round" stroke="#000000" stroke-width="0.5"/>
				<g>
					<path d="M50.4126396,136.9802856c1.0453987-0.6397858,1.860302-1.6240082,2.4897003-2.6668854       c0.6498985,1.0345917,1.5227013,1.9530945,2.5663986,2.5932007l0.0091019,0.6239014       c-1.0119019-0.6399994-1.8939018-1.4154053-2.5632935-2.3778076c-0.6508064,0.9817047-1.5196075,1.8133087-2.4927063,2.4618073       L50.4126396,136.9802856z"/>
				</g>
			</g>
		</g>
		<g>
			<g>
				
					<line stroke-linecap="round" fill="none" x1="53.3965454" x2="86.8614426" y1="168.2055969" y2="133.5901947" stroke-linejoin="round" stroke="#000000" stroke-width="0.5"/>
				<g>
					<path d="M83.7184372,133.2036896c1.1922989,0.2841034,2.4641113,0.1614075,3.6460037-0.1337891       c-0.2692032,1.191803-0.2985992,2.4586029-0.010498,3.6483765l-0.4338074,0.4487152       c-0.2654953-1.1674957-0.3436966-2.3392029-0.1390991-3.4935913c-1.1537933,0.2366943-2.3563004,0.2131958-3.5034866-0.0136108       L83.7184372,133.2036896z"/>
				</g>
			</g>
		</g>
		<g>
			<g>
				<path fill="none" d="      M53.3965454,168.2055969l29.6555939-10.1190033c-0.1673965-0.4903107,0.0957031-1.0243073,0.5858994-1.1916962      c0.4942017-0.171402,1.0281982,0.0917053,1.1956024,0.5858917l8.3176956-2.8376007      c-0.1673965-0.4941864,0.0956039-1.0282898,0.5858002-1.195694c0.4942017-0.1674042,1.0283051,0.0957031,1.1956024,0.585907      l11.0078049-3.754303c-0.1674042-0.4942017,0.0956955-1.0283051,0.5898972-1.1956024      c0.4901962-0.1674957,1.0242004,0.0955963,1.191597,0.5857849l10.9241028-3.7263794      c-0.1674042-0.4902039,0.0956955-1.0283051,0.5898972-1.1956177c0.4902039-0.1673889,1.0242004,0.0956116,1.1956024,0.5898132      l28.3065033-9.2720032" stroke-width="0.5" stroke-linejoin="round" stroke-linecap="round" stroke="#000000"/>
				<g>
					<path d="M146.1390381,134.2558899c0.9217987,0.8079071,2.1038055,1.2932129,3.2866974,1.5839081       c-0.7944946,0.9281921-1.4118042,2.0346985-1.7126007,3.2214813l-0.5930939,0.1943207       c0.3103027-1.1565094,0.7881927-2.2291107,1.5081024-3.1545105c-1.1309052-0.3293915-2.1833038-0.9115906-3.0919037-1.6478119       L146.1390381,134.2558899z"/>
				</g>
			</g>
		</g>
		<g>
			<g>
				<path fill="none" d="      M155.0731354,168.2055969l-33.9001999-12.8132019c0.1833038-0.4862061-0.063797-1.0281982-0.5499954-1.2115936      c-0.4861984-0.1833038-1.0283051,0.0597992-1.2116013,0.54599l-25.2796021-9.5531006      c0.1833038-0.4861908-0.063797-1.0281982-0.5499954-1.2115936c-0.4863052-0.1833038-1.0283051,0.0597992-1.2116013,0.5460052      l-11.1114044-4.1966095c0.1873016-0.4862061-0.0597992-1.0322113-0.5459976-1.2155914      c-0.4861908-0.1833038-1.0282974,0.063797-1.2116013,0.5499878l-19.999588-7.5596008" stroke-width="0.5" stroke-linejoin="round" stroke-linecap="round" stroke="#000000"/>
				<g>
					<path d="M60.39114,135.1255035c-0.2112007-1.2074127-0.8274994-2.3266144-1.5665016-3.2950134       c1.2010002-0.2247009,2.3758011-0.699295,3.3544006-1.4349976l0.5837021,0.2206116       c-0.9668999,0.7061768-2.0119019,1.2418976-3.1529007,1.5110931c0.6741982,0.9658051,1.1287079,2.0792999,1.3747063,3.2225952       L60.39114,135.1255035z"/>
				</g>
			</g>
		</g>
		<g>
			<g>
				<path fill="none" d="      M95.1958389,168.2055969L73.714241,148.3141937c0.3547974-0.3824921,0.3307953-0.9763947-0.0518036-1.3311005      c-0.3825989-0.3546906-0.9763947-0.3308105-1.3311005,0.0518036l-14.5499954-13.4732971" stroke-width="0.5" stroke-linejoin="round" stroke-linecap="round" stroke="#000000"/>
				<g>
					<path d="M57.4625473,136.712204c0.2583923-1.1981049,0.1083908-2.4671021-0.2121086-3.6423035       c1.1972008,0.2435913,2.4643021,0.245697,3.6478004-0.0679016l0.457901,0.423996       c-1.1615944,0.2906036-2.3312988,0.3939972-3.4898987,0.2142029c0.2614975,1.1484985,0.2637978,2.3511963,0.0616989,3.503006       L57.4625473,136.712204z"/>
				</g>
			</g>
		</g>
		<g>
			<g>
				
					<line stroke-linecap="round" fill="none" x1="95.1958389" x2="92.7657394" y1="168.2055969" y2="135.0350952" stroke-linejoin="round" stroke="#000000" stroke-width="0.5"/>
				<g>
					<path d="M90.3835449,137.1213989c1.0061951-0.6999054,1.7620926-1.7299957,2.3292923-2.8079987       c0.709404,0.9946899,1.6344986,1.8605957,2.7137985,2.4385986l0.0456009,0.6223907       c-1.0475998-0.5797882-1.9734955-1.3022003-2.697998-2.2238922c-0.5923004,1.0182037-1.4108963,1.8990936-2.3443985,2.6035919       L90.3835449,137.1213989z"/>
				</g>
			</g>
		</g>
		<g>
			<g>
				
					<line stroke-linecap="round" fill="none" x1="155.0731354" x2="99.2092361" y1="168.2055969" y2="132.553894" stroke-linejoin="round" stroke="#000000" stroke-width="0.5"/>
				<g>
					<path d="M99.456337,135.7108917c0.0410004-1.2249908-0.3324966-2.4468994-0.8571014-3.5462952       c1.2215042,0.0265045,2.4687042-0.1970062,3.5774002-0.7163086l0.5261002,0.3358154       c-1.0912933,0.492691-2.223999,0.8026886-3.3959961,0.8320007c0.4617004,1.0835876,0.6781006,2.2666931,0.6842957,3.4359894       L99.456337,135.7108917z"/>
				</g>
			</g>
		</g>
		<g>
			<g>
				<path fill="none" d="      M95.1958389,168.2055969l31.9792023-16.7507935c-0.2392044-0.4584045-0.0638046-1.0283051,0.3985062-1.2714081      c0.4582977-0.2391205,1.0282898-0.0637054,1.2713928,0.3984985l24.3392029-12.9911957" stroke-width="0.5" stroke-linejoin="round" stroke-linecap="round" stroke="#000000"/>
				<g>
					<path d="M150.3114319,136.2581024c1.0476074,0.6362915,2.2957001,0.9099884,3.5111084,0.9918976       c-0.6221008,1.0514984-1.0389099,2.2480927-1.1299896,3.4689941l-0.5505066,0.293808       c0.1055908-1.1926117,0.3908997-2.3317108,0.9399872-3.3675995c-1.1707916-0.1289215-2.3079987-0.5205078-3.3300934-1.088501       L150.3114319,136.2581024z"/>
				</g>
			</g>
		</g>
		<g>
			<g>
				
					<line stroke-linecap="round" fill="none" x1="155.0731354" x2="154.5945435" y1="168.2055969" y2="138.3761902" stroke-linejoin="round" stroke="#000000" stroke-width="0.5"/>
				<g>
					<path d="M152.0971375,140.3231964c1.0444946-0.6414032,1.8578949-1.6266937,2.4857941-2.6705933       c0.651413,1.0335999,1.5256195,1.9508972,2.5702057,2.5894928l0.0099945,0.6239929       c-1.0127869-0.6386871-1.8959961-1.4126892-2.5667877-2.3742981c-0.6493073,0.9828033-1.5169067,1.8157043-2.4890137,2.4656067       L152.0971375,140.3231964z"/>
				</g>
			</g>
		</g>
		<g>
			<g>
				
					<line stroke-linecap="round" fill="none" x1="52.8345451" x2="52.8345451" y1="117.3672791" y2="87.7098999" stroke-linejoin="round" stroke="#000000" stroke-width="0.5"/>
				<g>
					<path d="M50.3062401,89.6166c1.0546989-0.6245041,1.8838005-1.5967026,2.5283051-2.6304016       c0.6347961,1.0439987,1.494194,1.9750824,2.5282936,2.6304016v0.6240005       c-1.0023994-0.6548004-1.8729973-1.4428024-2.5282936-2.4150009c-0.6649971,0.9721985-1.5459061,1.7910004-2.5283051,2.4253006       V89.6166z"/>
				</g>
			</g>
		</g>
		<g>
			<g>
				<path fill="none" d="      M154.5072327,120.1929932l-37.8896866-14.1762924c0.1833954-0.4862061-0.0637054-1.0282059-0.5539093-1.2116013      c-0.4862976-0.1832047-1.0282974,0.063797-1.2116013,0.5499954l-21.5970993-8.0783997      c0.1833038-0.4862976-0.063797-1.0282974-0.5499954-1.2116013c-0.4902039-0.1832962-1.0322037,0.0638046-1.2116013,0.5500031      l-12.1516037-4.543396c0.1833038-0.4862061-0.063797-1.0322037-0.5539932-1.2116013      c-0.4861984-0.1833038-1.0281982,0.063797-1.2116013,0.5499954l-18.5161018-6.9281998" stroke-width="0.5" stroke-linejoin="round" stroke-linecap="round" stroke="#000000"/>
				<g>
					<path d="M59.9598389,87.5180969c-0.2152939-1.2066956-0.8352928-2.3238983-1.5775986-3.2896957       c1.2001991-0.2287064,2.3735008-0.7073059,3.3495979-1.4463043l0.5845032,0.2187042       c-0.9645996,0.7093964-2.0077934,1.2486954-3.1480026,1.521698c0.6775017,0.963501,1.1357994,2.0755005,1.3855019,3.2178955       L59.9598389,87.5180969z"/>
				</g>
			</g>
		</g>
		<g>
			<g>
				
					<line stroke-linecap="round" fill="none" x1="52.8345451" x2="85.573143" y1="117.3672791" y2="84.9131012" stroke-linejoin="round" stroke="#000000" stroke-width="0.5"/>
				<g>
					<path d="M82.4390411,84.4598999c1.1860962,0.3093796,2.4601974,0.2137985,3.6481018-0.0562057       c-0.2945023,1.1857071-0.3508072,2.4515915-0.0881042,3.6473999l-0.4431992,0.4393005       c-0.2406998-1.1728973-0.2938995-2.345993-0.0647964-3.4957962c-1.1586075,0.2121964-2.3603058,0.163002-3.5024033-0.0881042       L82.4390411,84.4598999z"/>
				</g>
			</g>
		</g>
		<g>
			<g>
				
					<line stroke-linecap="round" fill="none" x1="92.3741379" x2="92.3741379" y1="117.3672791" y2="87.8214951" stroke-linejoin="round" stroke="#000000" stroke-width="0.5"/>
				<g>
					<path d="M89.8458405,89.7281952c1.0547028-0.6244965,1.8837967-1.5965958,2.5282974-2.6302948       c0.6348038,1.0438995,1.4941025,1.9750977,2.5282974,2.6302948v0.6240005       c-1.0023956-0.6548004-1.8729935-1.4427948-2.5282974-2.4150009c-0.6650009,0.9722061-1.5458984,1.7910004-2.5282974,2.4253006       V89.7281952z"/>
				</g>
			</g>
		</g>
		<g>
			<g>
				
					<line stroke-linecap="round" fill="none" x1="154.5072327" x2="98.3268356" y1="120.1929932" y2="84.7894974" stroke-linejoin="round" stroke="#000000" stroke-width="0.5"/>
				<g>
					<path d="M98.592041,87.9450989c0.0338974-1.2253036-0.3464966-2.4449997-0.8774033-3.5414047       c1.2216034,0.0195007,2.4674988-0.2109985,3.5733032-0.7366943l0.5279007,0.332695       c-1.0884018,0.4990005-2.2192917,0.8154068-3.3911057,0.8515015c0.4679031,1.0810013,0.6910019,2.2627029,0.7039032,3.4319992       L98.592041,87.9450989z"/>
				</g>
			</g>
		</g>
		<g>
			<g>
				
					<line stroke-linecap="round" fill="none" x1="154.5072327" x2="154.5072327" y1="120.1929932" y2="87.7098999" stroke-linejoin="round" stroke="#000000" stroke-width="0.5"/>
				<g>
					<path d="M151.9788361,89.6166c1.054718-0.6245041,1.8838043-1.5967026,2.5283966-2.6304016       c0.6347046,1.0439987,1.4941101,1.9750824,2.5283203,2.6304016v0.6240005       c-1.0025177-0.6548004-1.8731079-1.4428024-2.5283203-2.4150009c-0.6651001,0.9721985-1.5458984,1.7910004-2.5283966,2.4253006       V89.6166z"/>
				</g>
			</g>
		</g>
		<g>
			<g>
				<path fill="none" d="      M92.3741379,117.3672791L71.9925461,99.5363998c0.3427963-0.3906021,0.3028946-0.9844055-0.0876083-1.3271179      c-0.3945999-0.3427811-0.9883881-0.3030014-1.3311996,0.0877151L56.6551399,86.1156998" stroke-width="0.5" stroke-linejoin="round" stroke-linecap="round" stroke="#000000"/>
				<g>
					<path d="M56.424839,89.2741013c0.2247086-1.2050018,0.0391006-2.469101-0.3142929-3.634903       c1.2036934,0.2098007,2.470295,0.1763992,3.6444931-0.1703033l0.4696007,0.4109039       c-1.1529007,0.3231964-2.3193016,0.4592972-3.4824982,0.3122025c0.2936974,1.1406937,0.3296967,2.3427963,0.1599998,3.499794       L56.424839,89.2741013z"/>
				</g>
			</g>
		</g>
		<g>
			<g>
				<path fill="none" d="      M52.8345451,117.3672791l28.0375938-8.9911804c-0.1594009-0.4942017,0.1156006-1.0242004,0.6098022-1.1836014      c0.4942017-0.1555023,1.0242004,0.1155014,1.183609,0.6097031l8.8118896-2.8257065      c-0.1595001-0.4942093,0.111496-1.0242081,0.6097031-1.1835938c0.494194-0.1555023,1.0242996,0.1154938,1.1836929,0.6097946      l9.3538055-2.9971008c-0.1594009-0.4981995,0.1156006-1.0283127,0.6097946-1.1836929      c0.4942017-0.1594009,1.0242996,0.1115952,1.1837006,0.6057968l11.9404068-3.8259964      c-0.1594086-0.4942017,0.1115952-1.0243073,0.6057968-1.1837006c0.4981003-0.1594009,1.0282059,0.1156006,1.1836014,0.6097946      l31.8490982-10.301796" stroke-width="0.5" stroke-linejoin="round" stroke-linecap="round" stroke="#000000"/>
				<g>
					<path d="M147.4047394,84.3071976c0.918808,0.8113022,2.0988922,1.3010025,3.2808075,1.5960846       c-0.7979126,0.9252167-1.4194031,2.0295181-1.7246094,3.2151184l-0.5937042,0.1919937       c0.3144989-1.1551971,0.796402-2.2261124,1.5196991-3.1487961c-1.1296997-0.3336029-2.1799011-0.9197006-3.0856934-1.6592026       L147.4047394,84.3071976z"/>
				</g>
			</g>
		</g>
		<g>
			<g>
				
					<line stroke-linecap="round" fill="none" x1="52.8345451" x2="59.8710403" y1="69.354599" y2="41.3703995" stroke-linejoin="round" stroke="#000000" stroke-width="0.5"/>
				<g>
					<path d="M56.9541397,42.6030998c1.1750984-0.3484993,2.2162018-1.0891991,3.0934067-1.9344025       c0.3610001,1.167202,0.967392,2.2798004,1.8104935,3.1674004l-0.1520996,0.6053009       c-0.8125-0.8795013-1.4646988-1.8561172-1.863102-2.9586983c-0.882,0.7805824-1.935997,1.3598976-3.0433998,1.7355003       L56.9541397,42.6030998z"/>
				</g>
			</g>
		</g>
		<g>
			<g>
				<path fill="none" d="      M52.8345451,69.354599l22.473896-15.7544022c-0.2948914-0.4223976-0.1912994-1.0122986,0.2312012-1.3111992      c0.4263992-0.294899,1.0162964-0.1912994,1.3111954,0.2312012l16.4122009-11.4378014" stroke-width="0.5" stroke-linejoin="round" stroke-linecap="round" stroke="#000000"/>
				<g>
					<path d="M90.2531357,40.0982819c1.1154099,0.5082169,2.387001,0.632618,3.6036072,0.5704155       c-0.4936066,1.1175842-0.7661057,2.3551025-0.7125015,3.5782013l-0.5119019,0.3568001       c-0.0359039-1.1968002,0.1128006-2.3616982,0.5357971-3.455101c-1.1778946,0.0102005-2.3532944-0.2443161-3.4353943-0.6875992       L90.2531357,40.0982819z"/>
				</g>
			</g>
		</g>
		<g>
			<g>
				<path fill="none" d="      M52.8345451,69.354599l28.256794-10.0791016c-0.1753998-0.4902992,0.0796967-1.0282974,0.5699005-1.203598      c0.4901962-0.1753998,1.0283051,0.0797005,1.203598,0.5699005l11.657402-4.1569023      c-0.1713028-0.4901009,0.0837021-1.0280991,0.5738983-1.2034988c0.4862976-0.1753998,1.0282974,0.0797005,1.1996994,0.5698853      l17.4561996-6.2252846c-0.1753998-0.4902,0.0797043-1.0283012,0.5699005-1.2036018      c0.4902039-0.1753998,1.0282974,0.0797005,1.2036057,0.5698853l17.5052948-6.0859985" stroke-width="0.5" stroke-linejoin="round" stroke-linecap="round" stroke="#000000"/>
				<g>
					<path d="M130.3996429,39.1442833c0.9361877,0.7911148,2.1266937,1.2549973,3.3146973,1.5244141       c-0.7774963,0.9423027-1.3749084,2.059803-1.6542053,3.2518997l-0.5894012,0.2049026       c0.2893066-1.1618996,0.747818-2.243,1.4508972-3.1812172c-1.1366882-0.3088837-2.1993866-0.8720016-3.1210785-1.5916824       L130.3996429,39.1442833z"/>
				</g>
			</g>
		</g>
		<g>
			<g>
				
					<line stroke-linecap="round" fill="none" x1="92.3741379" x2="64.6409378" y1="69.354599" y2="41.6214981" stroke-linejoin="round" stroke="#000000" stroke-width="0.5"/>
				<g>
					<path d="M64.2014389,44.7575989c0.3041992-1.1874008,0.2030029-2.4611015-0.0720978-3.6478004       c1.1869965,0.289299,2.4531021,0.3400993,3.6476974,0.0722008l0.4412003,0.4412842       c-1.1717987,0.2457161-2.3446884,0.3041153-3.4953995,0.079998c0.2171021,1.1577187,0.1733017,2.3596191-0.0728989,3.5028191       L64.2014389,44.7575989z"/>
				</g>
			</g>
		</g>
		<g>
			<g>
				
					<line stroke-linecap="round" fill="none" x1="92.3741379" x2="97.8754425" y1="69.354599" y2="42.649498" stroke-linejoin="round" stroke="#000000" stroke-width="0.5"/>
				<g>
					<path d="M95.0144424,44.0069008c1.1589966-0.3988037,2.1671982-1.1838036,3.007103-2.0661011       c0.4110031,1.1504822,1.0647964,2.2359009,1.9455948,3.0863991l-0.1259995,0.611084       c-0.8497009-0.843483-1.5434036-1.7910004-1.9889984-2.8754845c-0.8475037,0.8180008-1.8755035,1.4422989-2.9657059,1.8652992       L95.0144424,44.0069008z"/>
				</g>
			</g>
		</g>
		<g>
			<g>
				
					<line stroke-linecap="round" fill="none" x1="92.3741379" x2="136.115036" y1="69.354599" y2="41.697998" stroke-linejoin="round" stroke="#000000" stroke-width="0.5"/>
				<g>
					<path d="M133.1522369,40.579998c1.0915985,0.5577011,2.356308,0.7388992,3.5745087,0.7312851       c-0.5431976,1.0944176-0.8709106,2.3184166-0.8721008,3.542717L135.32724,45.1875       c0.0177002-1.197216,0.2184906-2.3542175,0.6900024-3.4276009c-1.1771088-0.0426178-2.3399048-0.3494987-3.4011078-0.8409004       L133.1522369,40.579998z"/>
				</g>
			</g>
		</g>
		<g>
			<g>
				<path fill="none" d="      M154.5072327,69.354599l-38.9577942-13.6182022c0.171402-0.4902-0.0876999-1.0281982-0.5778885-1.1995964      c-0.4942093-0.171402-1.0282135,0.0876999-1.1996078,0.5777969l-9.7243958-3.399498      c0.1712952-0.4902-0.0877075-1.0282021-0.5779037-1.1996002c-0.4942017-0.171402-1.0283051,0.0876007-1.199707,0.5777817      l-4.9498978-1.7295837c0.1753998-0.4902992-0.0837021-1.0282974-0.5778961-1.1996994      c-0.4902039-0.171299-1.0242004,0.0876999-1.1995926,0.5780029l-7.982811-2.7899017      c0.1713028-0.4902-0.0876999-1.0281982-0.5778961-1.1996002c-0.4902039-0.1713982-1.0282974,0.0876999-1.1996994,0.5778999      l-15.4140015-5.5760002" stroke-width="0.5" stroke-linejoin="round" stroke-linecap="round" stroke="#000000"/>
				<g>
					<path d="M71.3010406,42.7804985c-0.2284927-1.204216-0.8606033-2.3145981-1.6134033-3.2723007       c1.1976013-0.2417984,2.3655014-0.7332001,3.3335037-1.4827003l0.5868988,0.2123032       c-0.9568024,0.7198982-1.9940033,1.2704811-3.1311035,1.5558968c0.6879044,0.9561005,1.1583023,2.0629997,1.4205017,3.2025833       L71.3010406,42.7804985z"/>
				</g>
			</g>
		</g>
		<g>
			<g>
				<path fill="none" d="      M154.5072327,69.354599l-32.1426849-17.7750015c0.251091-0.4543152,0.0876923-1.0281982-0.3706131-1.2793159      c-0.4542999-0.2510834-1.0242996-0.0877838-1.2792969,0.3706169l-18.2633972-9.6637993" stroke-width="0.5" stroke-linejoin="round" stroke-linecap="round" stroke="#000000"/>
				<g>
					<path d="M102.9541397,44.1335983c-0.0587997-1.2243156-0.530304-2.4118004-1.1425018-3.464901       c1.2196045-0.0727997,2.444603-0.3969002,3.5074005-1.0045967l0.5515976,0.2918968       c-1.0475998,0.5797997-2.1512985,0.9807014-3.3170929,1.1052017c0.5482941,1.0424995,0.8600006,2.2040825,0.9611969,3.3690834       L102.9541397,44.1335983z"/>
				</g>
			</g>
		</g>
		<g>
			<g>
				
					<line stroke-linecap="round" fill="none" x1="154.5072327" x2="141.240036" y1="69.354599" y2="41.0674973" stroke-linejoin="round" stroke="#000000" stroke-width="0.5"/>
				<g>
					<path d="M139.7606354,43.8673973c0.6896973-1.0131989,1.0274963-2.2454987,1.1721039-3.454998       c1.0180054,0.6755981,2.1914978,1.153698,3.4060059,1.3078003l0.2649994,0.5649986       c-1.1856079-0.1671982-2.3085022-0.5109978-3.3146057-1.112915c-0.1893005,1.1626167-0.6390991,2.2779999-1.259201,3.2694168       L139.7606354,43.8673973z"/>
				</g>
			</g>
		</g>
		<g>
			<g>
				
					<line stroke-linecap="round" fill="none" x1="64.1293411" x2="64.1293411" y1="24.1637001" y2="0.7236" stroke-linejoin="round" stroke="#000000" stroke-width="0.5"/>
				<g>
					<path d="M61.6009407,2.6302824C62.6556396,2.0058,63.4847412,1.0337,64.1293411,0       c0.634697,1.0439,1.4941025,1.9750999,2.5282974,2.6302824V3.2544       C65.6551361,2.5995998,64.7845459,1.8115,64.1293411,0.8392825C63.464241,1.8115,62.5834389,2.6302824,61.6009407,3.2645998       V2.6302824z"/>
				</g>
			</g>
		</g>
		<g>
			<g>
				
					<line stroke-linecap="round" fill="none" x1="98.0215454" x2="98.0215454" y1="24.1637001" y2="0.7236" stroke-linejoin="round" stroke="#000000" stroke-width="0.5"/>
				<g>
					<path d="M95.4931412,2.6302824C96.5478363,2.0058,97.3769379,1.0337,98.0215454,0       c0.634697,1.0439,1.4940948,1.9750999,2.5282898,2.6302824V3.2544       C99.5473404,2.5995998,98.6767426,1.8115,98.0215454,0.8392825C97.3564377,1.8115,96.4756393,2.6302824,95.4931412,3.2645998       V2.6302824z"/>
				</g>
			</g>
		</g>
		<g>
			<g>
				
					<line stroke-linecap="round" fill="none" x1="137.5610352" x2="137.5610352" y1="24.1637001" y2="0.7236" stroke-linejoin="round" stroke="#000000" stroke-width="0.5"/>
				<g>
					<path d="M135.0327454,2.6302824C136.0874329,2.0058,136.9165497,1.0337,137.5610352,0       c0.6347961,1.0439,1.4942017,1.9750999,2.5283966,2.6302824V3.2544       c-1.0024872-0.6548002-1.8730927-1.4429001-2.5283966-2.4151175c-0.6649933,0.9722175-1.5457916,1.7909999-2.5282898,2.4253173       V2.6302824z"/>
				</g>
			</g>
		</g>
		<g>
			<g>
				<path fill="none" d="      M92.3741379,117.3672791l31.305603-15.6507797c-0.2350998-0.4664001-0.0438004-1.0323029,0.4184952-1.2634048      c0.4663086-0.235199,1.0322037-0.0438995,1.2634048,0.4184036l27.8104935-13.5679016" stroke-width="0.5" stroke-linejoin="round" stroke-linecap="round" stroke="#000000"/>
				<g>
					<path d="M150.3498383,85.8672791c1.0238037,0.6740036,2.2610931,0.9930038,3.472702,1.1189194       c-0.6598969,1.0282974-1.1199951,2.2089996-1.2555084,3.4256973l-0.560791,0.2736053       c0.1488953-1.1880035,0.4754944-2.3160019,1.0618896-3.3312149c-1.1652985-0.1714859-2.2874908-0.6040878-3.2882996-1.2088852       L150.3498383,85.8672791z"/>
				</g>
			</g>
		</g>
		
			<line stroke-linecap="round" fill="none" x1="143.31604" x2="146.0341339" y1="128.6660004" y2="128.6660004" stroke-linejoin="round" stroke="#000000" stroke-width="0.5" stroke-miterlimit="10"/>
		<g>
			<g fill="#010101" transform="matrix(1 0 0 1 12.3933105 31.4039993)"><use transform="matrix(0.008 0 0 0.008 0.000000 0.000000)" xmlns:xlink="http://www.w3.org/1999/xlink" xlink:href="#f003-glyph-0-263"/><use transform="matrix(0.008 0 0 0.008 8.208000 0.000000)" xmlns:xlink="http://www.w3.org/1999/xlink" xlink:href="#f003-glyph-0-70"/><use transform="matrix(0.008 0 0 0.008 13.240000 0.000000)" xmlns:xlink="http://www.w3.org/1999/xlink" xlink:href="#f003-glyph-0-80"/><use transform="matrix(0.008 0 0 0.008 16.920000 0.000000)" xmlns:xlink="http://www.w3.org/1999/xlink" xlink:href="#f003-glyph-0-86"/><use transform="matrix(0.008 0 0 0.008 21.072000 0.000000)" xmlns:xlink="http://www.w3.org/1999/xlink" xlink:href="#f003-glyph-0-85"/><use transform="matrix(0.008 0 0 0.008 23.528000 0.000000)" xmlns:xlink="http://www.w3.org/1999/xlink" xlink:href="#f003-glyph-0-81"/><use transform="matrix(0.008 0 0 0.008 27.336000 0.000000)" xmlns:xlink="http://www.w3.org/1999/xlink" xlink:href="#f003-glyph-0-86"/><use transform="matrix(0.008 0 0 0.008 31.488000 0.000000)" xmlns:xlink="http://www.w3.org/1999/xlink" xlink:href="#f003-glyph-0-85"/></g></g>
		<g>
			<g fill="#010101" transform="matrix(1 0 0 1 22.173584 40.6686478)"><use transform="matrix(0.008 0 0 0.008 0.000000 0.000000)" xmlns:xlink="http://www.w3.org/1999/xlink" xlink:href="#f003-glyph-0-77"/><use transform="matrix(0.008 0 0 0.008 1.960000 0.000000)" xmlns:xlink="http://www.w3.org/1999/xlink" xlink:href="#f003-glyph-0-66"/><use transform="matrix(0.008 0 0 0.008 5.696000 0.000000)" xmlns:xlink="http://www.w3.org/1999/xlink" xlink:href="#f003-glyph-0-90"/><use transform="matrix(0.008 0 0 0.008 9.200000 0.000000)" xmlns:xlink="http://www.w3.org/1999/xlink" xlink:href="#f003-glyph-0-70"/><use transform="matrix(0.008 0 0 0.008 12.400000 0.000000)" xmlns:xlink="http://www.w3.org/1999/xlink" xlink:href="#f003-glyph-0-83"/></g></g>
		<g>
			<g fill="#010101" transform="matrix(1 0 0 1 8.6928711 76.6386185)"><use transform="matrix(0.008 0 0 0.008 0.000000 0.000000)" xmlns:xlink="http://www.w3.org/1999/xlink" xlink:href="#f003-glyph-0-263"/><use transform="matrix(0.008 0 0 0.008 8.208000 0.000000)" xmlns:xlink="http://www.w3.org/1999/xlink" xlink:href="#f003-glyph-0-70"/><use transform="matrix(0.008 0 0 0.008 13.240000 0.000000)" xmlns:xlink="http://www.w3.org/1999/xlink" xlink:href="#f003-glyph-0-85"/><use transform="matrix(0.008 0 0 0.008 15.624000 0.000000)" xmlns:xlink="http://www.w3.org/1999/xlink" xlink:href="#f003-glyph-0-73"/><use transform="matrix(0.008 0 0 0.008 19.576000 0.000000)" xmlns:xlink="http://www.w3.org/1999/xlink" xlink:href="#f003-glyph-0-74"/><use transform="matrix(0.008 0 0 0.008 21.656000 0.000000)" xmlns:xlink="http://www.w3.org/1999/xlink" xlink:href="#f003-glyph-0-83"/><use transform="matrix(0.008 0 0 0.008 24.432000 0.000000)" xmlns:xlink="http://www.w3.org/1999/xlink" xlink:href="#f003-glyph-0-69"/></g></g>
		<g>
			<g fill="#010101" transform="matrix(1 0 0 1 3.5 85.9032669)"><use transform="matrix(0.008 0 0 0.008 0.000000 0.000000)" xmlns:xlink="http://www.w3.org/1999/xlink" xlink:href="#f003-glyph-0-73"/><use transform="matrix(0.008 0 0 0.008 3.952000 0.000000)" xmlns:xlink="http://www.w3.org/1999/xlink" xlink:href="#f003-glyph-0-74"/><use transform="matrix(0.008 0 0 0.008 6.104000 0.000000)" xmlns:xlink="http://www.w3.org/1999/xlink" xlink:href="#f003-glyph-0-69"/><use transform="matrix(0.008 0 0 0.008 10.136000 0.000000)" xmlns:xlink="http://www.w3.org/1999/xlink" xlink:href="#f003-glyph-0-69"/><use transform="matrix(0.008 0 0 0.008 14.168000 0.000000)" xmlns:xlink="http://www.w3.org/1999/xlink" xlink:href="#f003-glyph-0-70"/><use transform="matrix(0.008 0 0 0.008 17.368000 0.000000)" xmlns:xlink="http://www.w3.org/1999/xlink" xlink:href="#f003-glyph-0-79"/><use transform="matrix(0.008 0 0 0.008 23.456000 0.000000)" xmlns:xlink="http://www.w3.org/1999/xlink" xlink:href="#f003-glyph-0-77"/><use transform="matrix(0.008 0 0 0.008 25.416000 0.000000)" xmlns:xlink="http://www.w3.org/1999/xlink" xlink:href="#f003-glyph-0-66"/><use transform="matrix(0.008 0 0 0.008 29.152000 0.000000)" xmlns:xlink="http://www.w3.org/1999/xlink" xlink:href="#f003-glyph-0-90"/><use transform="matrix(0.008 0 0 0.008 32.656000 0.000000)" xmlns:xlink="http://www.w3.org/1999/xlink" xlink:href="#f003-glyph-0-70"/><use transform="matrix(0.008 0 0 0.008 35.856000 0.000000)" xmlns:xlink="http://www.w3.org/1999/xlink" xlink:href="#f003-glyph-0-83"/></g></g>
		<g>
			<g fill="#010101" transform="matrix(1 0 0 1 5.1928711 124.2934036)"><use transform="matrix(0.008 0 0 0.008 0.000000 0.000000)" xmlns:xlink="http://www.w3.org/1999/xlink" xlink:href="#f003-glyph-0-263"/><use transform="matrix(0.008 0 0 0.008 8.208000 0.000000)" xmlns:xlink="http://www.w3.org/1999/xlink" xlink:href="#f003-glyph-0-70"/><use transform="matrix(0.008 0 0 0.008 13.240000 0.000000)" xmlns:xlink="http://www.w3.org/1999/xlink" xlink:href="#f003-glyph-0-84"/><use transform="matrix(0.008 0 0 0.008 15.960000 0.000000)" xmlns:xlink="http://www.w3.org/1999/xlink" xlink:href="#f003-glyph-0-70"/><use transform="matrix(0.008 0 0 0.008 19.112000 0.000000)" xmlns:xlink="http://www.w3.org/1999/xlink" xlink:href="#f003-glyph-0-68"/><use transform="matrix(0.008 0 0 0.008 22.112000 0.000000)" xmlns:xlink="http://www.w3.org/1999/xlink" xlink:href="#f003-glyph-0-80"/><use transform="matrix(0.008 0 0 0.008 25.792000 0.000000)" xmlns:xlink="http://www.w3.org/1999/xlink" xlink:href="#f003-glyph-0-79"/><use transform="matrix(0.008 0 0 0.008 29.992000 0.000000)" xmlns:xlink="http://www.w3.org/1999/xlink" xlink:href="#f003-glyph-0-69"/></g></g>
		<g>
			<g fill="#010101" transform="matrix(1 0 0 1 0 133.5580444)"><use transform="matrix(0.008 0 0 0.008 0.000000 0.000000)" xmlns:xlink="http://www.w3.org/1999/xlink" xlink:href="#f003-glyph-0-73"/><use transform="matrix(0.008 0 0 0.008 3.952000 0.000000)" xmlns:xlink="http://www.w3.org/1999/xlink" xlink:href="#f003-glyph-0-74"/><use transform="matrix(0.008 0 0 0.008 6.104000 0.000000)" xmlns:xlink="http://www.w3.org/1999/xlink" xlink:href="#f003-glyph-0-69"/><use transform="matrix(0.008 0 0 0.008 10.136000 0.000000)" xmlns:xlink="http://www.w3.org/1999/xlink" xlink:href="#f003-glyph-0-69"/><use transform="matrix(0.008 0 0 0.008 14.168000 0.000000)" xmlns:xlink="http://www.w3.org/1999/xlink" xlink:href="#f003-glyph-0-70"/><use transform="matrix(0.008 0 0 0.008 17.368000 0.000000)" xmlns:xlink="http://www.w3.org/1999/xlink" xlink:href="#f003-glyph-0-79"/><use transform="matrix(0.008 0 0 0.008 23.456000 0.000000)" xmlns:xlink="http://www.w3.org/1999/xlink" xlink:href="#f003-glyph-0-77"/><use transform="matrix(0.008 0 0 0.008 25.416000 0.000000)" xmlns:xlink="http://www.w3.org/1999/xlink" xlink:href="#f003-glyph-0-66"/><use transform="matrix(0.008 0 0 0.008 29.152000 0.000000)" xmlns:xlink="http://www.w3.org/1999/xlink" xlink:href="#f003-glyph-0-90"/><use transform="matrix(0.008 0 0 0.008 32.656000 0.000000)" xmlns:xlink="http://www.w3.org/1999/xlink" xlink:href="#f003-glyph-0-70"/><use transform="matrix(0.008 0 0 0.008 35.856000 0.000000)" xmlns:xlink="http://www.w3.org/1999/xlink" xlink:href="#f003-glyph-0-83"/></g></g>
		<g>
			<g fill="#010101" transform="matrix(1 0 0 1 8.6928711 174.7322388)"><use transform="matrix(0.008 0 0 0.008 0.000000 0.000000)" xmlns:xlink="http://www.w3.org/1999/xlink" xlink:href="#f003-glyph-0-263"/><use transform="matrix(0.008 0 0 0.008 8.208000 0.000000)" xmlns:xlink="http://www.w3.org/1999/xlink" xlink:href="#f003-glyph-0-70"/><use transform="matrix(0.008 0 0 0.008 13.240000 0.000000)" xmlns:xlink="http://www.w3.org/1999/xlink" xlink:href="#f003-glyph-0-277"/><use transform="matrix(0.008 0 0 0.008 17.384000 0.000000)" xmlns:xlink="http://www.w3.org/1999/xlink" xlink:href="#f003-glyph-0-83"/><use transform="matrix(0.008 0 0 0.008 20.280000 0.000000)" xmlns:xlink="http://www.w3.org/1999/xlink" xlink:href="#f003-glyph-0-84"/><use transform="matrix(0.008 0 0 0.008 22.896000 0.000000)" xmlns:xlink="http://www.w3.org/1999/xlink" xlink:href="#f003-glyph-0-85"/></g></g>
		<g>
			<g fill="#010101" transform="matrix(1 0 0 1 3.5 183.9969177)"><use transform="matrix(0.008 0 0 0.008 0.000000 0.000000)" xmlns:xlink="http://www.w3.org/1999/xlink" xlink:href="#f003-glyph-0-73"/><use transform="matrix(0.008 0 0 0.008 3.952000 0.000000)" xmlns:xlink="http://www.w3.org/1999/xlink" xlink:href="#f003-glyph-0-74"/><use transform="matrix(0.008 0 0 0.008 6.104000 0.000000)" xmlns:xlink="http://www.w3.org/1999/xlink" xlink:href="#f003-glyph-0-69"/><use transform="matrix(0.008 0 0 0.008 10.136000 0.000000)" xmlns:xlink="http://www.w3.org/1999/xlink" xlink:href="#f003-glyph-0-69"/><use transform="matrix(0.008 0 0 0.008 14.168000 0.000000)" xmlns:xlink="http://www.w3.org/1999/xlink" xlink:href="#f003-glyph-0-70"/><use transform="matrix(0.008 0 0 0.008 17.368000 0.000000)" xmlns:xlink="http://www.w3.org/1999/xlink" xlink:href="#f003-glyph-0-79"/><use transform="matrix(0.008 0 0 0.008 23.456000 0.000000)" xmlns:xlink="http://www.w3.org/1999/xlink" xlink:href="#f003-glyph-0-77"/><use transform="matrix(0.008 0 0 0.008 25.416000 0.000000)" xmlns:xlink="http://www.w3.org/1999/xlink" xlink:href="#f003-glyph-0-66"/><use transform="matrix(0.008 0 0 0.008 29.152000 0.000000)" xmlns:xlink="http://www.w3.org/1999/xlink" xlink:href="#f003-glyph-0-90"/><use transform="matrix(0.008 0 0 0.008 32.656000 0.000000)" xmlns:xlink="http://www.w3.org/1999/xlink" xlink:href="#f003-glyph-0-70"/><use transform="matrix(0.008 0 0 0.008 35.856000 0.000000)" xmlns:xlink="http://www.w3.org/1999/xlink" xlink:href="#f003-glyph-0-83"/></g></g>
		<g>
			<g fill="#010101" transform="matrix(1 0 0 1 5.0469971 239.8360291)"><use transform="matrix(0.008 0 0 0.008 0.000000 0.000000)" xmlns:xlink="http://www.w3.org/1999/xlink" xlink:href="#f003-glyph-0-263"/><use transform="matrix(0.008 0 0 0.008 8.208000 0.000000)" xmlns:xlink="http://www.w3.org/1999/xlink" xlink:href="#f003-glyph-0-70"/><use transform="matrix(0.008 0 0 0.008 13.240000 0.000000)" xmlns:xlink="http://www.w3.org/1999/xlink" xlink:href="#f003-glyph-0-74"/><use transform="matrix(0.008 0 0 0.008 15.320000 0.000000)" xmlns:xlink="http://www.w3.org/1999/xlink" xlink:href="#f003-glyph-0-79"/><use transform="matrix(0.008 0 0 0.008 19.448000 0.000000)" xmlns:xlink="http://www.w3.org/1999/xlink" xlink:href="#f003-glyph-0-81"/><use transform="matrix(0.008 0 0 0.008 23.256000 0.000000)" xmlns:xlink="http://www.w3.org/1999/xlink" xlink:href="#f003-glyph-0-86"/><use transform="matrix(0.008 0 0 0.008 27.408000 0.000000)" xmlns:xlink="http://www.w3.org/1999/xlink" xlink:href="#f003-glyph-0-85"/></g></g>
		<g>
			<g fill="#010101" transform="matrix(1 0 0 1 12.3387451 249.100708)"><use transform="matrix(0.008 0 0 0.008 0.000000 0.000000)" xmlns:xlink="http://www.w3.org/1999/xlink" xlink:href="#f003-glyph-0-77"/><use transform="matrix(0.008 0 0 0.008 1.960000 0.000000)" xmlns:xlink="http://www.w3.org/1999/xlink" xlink:href="#f003-glyph-0-66"/><use transform="matrix(0.008 0 0 0.008 5.696000 0.000000)" xmlns:xlink="http://www.w3.org/1999/xlink" xlink:href="#f003-glyph-0-90"/><use transform="matrix(0.008 0 0 0.008 9.200000 0.000000)" xmlns:xlink="http://www.w3.org/1999/xlink" xlink:href="#f003-glyph-0-70"/><use transform="matrix(0.008 0 0 0.008 12.400000 0.000000)" xmlns:xlink="http://www.w3.org/1999/xlink" xlink:href="#f003-glyph-0-83"/></g></g>
		<g>
			
				<g fill="#010101" transform="matrix(1 0 0 1 45.8198242 13.4475174)"><use transform="matrix(0.008 0 0 0.008 0.000000 0.000000)" xmlns:xlink="http://www.w3.org/1999/xlink" xlink:href="#f003-glyph-1-3728"/></g><g fill="#010101" transform="matrix(1 0 0 1 50.9677734 13.5275345)"><use transform="matrix(0.008 0 0 0.008 0.000000 0.000000)" xmlns:xlink="http://www.w3.org/1999/xlink" xlink:href="#f003-glyph-1-12"/></g><g fill="#010101" transform="matrix(1 0 0 1 53.8317871 13.4475174)"><use transform="matrix(0.008 0 0 0.008 0.000000 0.000000)" xmlns:xlink="http://www.w3.org/1999/xlink" xlink:href="#f003-glyph-1-3745"/></g><g fill="#010101" transform="matrix(1 0 0 1 58.383667 13.5275345)"><use transform="matrix(0.008 0 0 0.008 0.000000 0.000000)" xmlns:xlink="http://www.w3.org/1999/xlink" xlink:href="#f003-glyph-1-13"/></g></g>
		<g>
			
				<g fill="#010101" transform="matrix(1 0 0 1 38.8735352 56.3107986)"><use transform="matrix(0.008 0 0 0.008 0.000000 0.000000)" xmlns:xlink="http://www.w3.org/1999/xlink" xlink:href="#f003-glyph-1-2845"/></g><g fill="#010101" transform="matrix(1 0 0 1 43.3695068 58.1507645)"><use transform="matrix(0.006 0 0 0.006 0.000000 0.000000)" xmlns:xlink="http://www.w3.org/1999/xlink" xlink:href="#f003-glyph-1-82"/></g><g fill="#010101" transform="matrix(1 0 0 1 46.6935425 58.1507645)"><use transform="matrix(0.006 0 0 0.006 0.000000 0.000000)" xmlns:xlink="http://www.w3.org/1999/xlink" xlink:href="#f003-glyph-1-73"/></g><g fill="#010101" transform="matrix(1 0 0 1 49.3395386 58.1507645)"><use transform="matrix(0.006 0 0 0.006 0.000000 0.000000)" xmlns:xlink="http://www.w3.org/1999/xlink" xlink:href="#f003-glyph-1-91"/></g></g>
		<g>
			
				<g fill="#010101" transform="matrix(1 0 0 1 53.3965149 271.4440918)"><use transform="matrix(0.008 0 0 0.008 0.000000 0.000000)" xmlns:xlink="http://www.w3.org/1999/xlink" xlink:href="#f003-glyph-1-3720"/></g></g>
		<g>
			
				<g fill="#010101" transform="matrix(1 0 0 1 160.0665588 68.4347)"><use transform="matrix(0.008 0 0 0.008 0.000000 0.000000)" xmlns:xlink="http://www.w3.org/1999/xlink" xlink:href="#f003-glyph-1-3704"/></g><g fill="#010101" transform="matrix(1 0 0 1 166.3225403 70.2746658)"><use transform="matrix(0.006 0 0 0.006 0.000000 0.000000)" xmlns:xlink="http://www.w3.org/1999/xlink" xlink:href="#f003-glyph-1-24"/></g><g fill="#010101" transform="matrix(1 0 0 1 171.9978333 68.4347)"><use transform="matrix(0.008 0 0 0.008 0.000000 0.000000)" xmlns:xlink="http://www.w3.org/1999/xlink" xlink:href="#f003-glyph-1-33"/></g><g fill="#010101" transform="matrix(1 0 0 1 179.1390686 68.4347)"><use transform="matrix(0.008 0 0 0.008 0.000000 0.000000)" xmlns:xlink="http://www.w3.org/1999/xlink" xlink:href="#f003-glyph-1-3729"/></g><g fill="#010101" transform="matrix(1 0 0 1 183.763092 68.4347)"><use transform="matrix(0.008 0 0 0.008 0.000000 0.000000)" xmlns:xlink="http://www.w3.org/1999/xlink" xlink:href="#f003-glyph-1-12"/><use transform="matrix(0.008 0 0 0.008 2.768000 0.000000)" xmlns:xlink="http://www.w3.org/1999/xlink" xlink:href="#f003-glyph-1-3719"/></g><g fill="#010101" transform="matrix(1 0 0 1 193.3310852 70.2746658)"><use transform="matrix(0.006 0 0 0.006 0.000000 0.000000)" xmlns:xlink="http://www.w3.org/1999/xlink" xlink:href="#f003-glyph-1-3704"/></g><g fill="#010101" transform="matrix(1 0 0 1 198.1370544 70.2746658)"><use transform="matrix(0.006 0 0 0.006 0.000000 0.000000)" xmlns:xlink="http://www.w3.org/1999/xlink" xlink:href="#f003-glyph-1-3701"/></g><g fill="#010101" transform="matrix(1 0 0 1 201.8750305 70.2746658)"><use transform="matrix(0.006 0 0 0.006 0.000000 0.000000)" xmlns:xlink="http://www.w3.org/1999/xlink" xlink:href="#f003-glyph-1-21"/></g><g fill="#010101" transform="matrix(1 0 0 1 205.2970276 68.4347)"><use transform="matrix(0.008 0 0 0.008 0.000000 0.000000)" xmlns:xlink="http://www.w3.org/1999/xlink" xlink:href="#f003-glyph-1-3704"/></g><g fill="#010101" transform="matrix(1 0 0 1 211.5530701 70.2746658)"><use transform="matrix(0.006 0 0 0.006 0.000000 0.000000)" xmlns:xlink="http://www.w3.org/1999/xlink" xlink:href="#f003-glyph-1-3701"/></g><g fill="#010101" transform="matrix(1 0 0 1 215.2910461 70.2746658)"><use transform="matrix(0.006 0 0 0.006 0.000000 0.000000)" xmlns:xlink="http://www.w3.org/1999/xlink" xlink:href="#f003-glyph-1-21"/></g><g fill="#010101" transform="matrix(1 0 0 1 218.7130432 68.4347)"><use transform="matrix(0.008 0 0 0.008 0.000000 0.000000)" xmlns:xlink="http://www.w3.org/1999/xlink" xlink:href="#f003-glyph-1-13"/></g></g>
		<g>
			
				<g fill="#010101" transform="matrix(1 0 0 1 160.1627502 119.2728348)"><use transform="matrix(0.008 0 0 0.008 0.000000 0.000000)" xmlns:xlink="http://www.w3.org/1999/xlink" xlink:href="#f003-glyph-1-3704"/></g><g fill="#010101" transform="matrix(1 0 0 1 166.4187317 121.1128006)"><use transform="matrix(0.006 0 0 0.006 0.000000 0.000000)" xmlns:xlink="http://www.w3.org/1999/xlink" xlink:href="#f003-glyph-1-22"/></g><g fill="#010101" transform="matrix(1 0 0 1 172.0940247 119.2728348)"><use transform="matrix(0.008 0 0 0.008 0.000000 0.000000)" xmlns:xlink="http://www.w3.org/1999/xlink" xlink:href="#f003-glyph-1-33"/></g><g fill="#010101" transform="matrix(1 0 0 1 179.23526 119.2728348)"><use transform="matrix(0.008 0 0 0.008 0.000000 0.000000)" xmlns:xlink="http://www.w3.org/1999/xlink" xlink:href="#f003-glyph-1-3729"/></g><g fill="#010101" transform="matrix(1 0 0 1 183.8592834 119.2728348)"><use transform="matrix(0.008 0 0 0.008 0.000000 0.000000)" xmlns:xlink="http://www.w3.org/1999/xlink" xlink:href="#f003-glyph-1-12"/><use transform="matrix(0.008 0 0 0.008 2.768000 0.000000)" xmlns:xlink="http://www.w3.org/1999/xlink" xlink:href="#f003-glyph-1-3719"/></g><g fill="#010101" transform="matrix(1 0 0 1 193.4272766 121.1128006)"><use transform="matrix(0.006 0 0 0.006 0.000000 0.000000)" xmlns:xlink="http://www.w3.org/1999/xlink" xlink:href="#f003-glyph-1-3704"/></g><g fill="#010101" transform="matrix(1 0 0 1 198.2332458 121.1128006)"><use transform="matrix(0.006 0 0 0.006 0.000000 0.000000)" xmlns:xlink="http://www.w3.org/1999/xlink" xlink:href="#f003-glyph-1-3701"/></g><g fill="#010101" transform="matrix(1 0 0 1 202.4712219 119.2728348)"><use transform="matrix(0.008 0 0 0.008 0.000000 0.000000)" xmlns:xlink="http://www.w3.org/1999/xlink" xlink:href="#f003-glyph-1-3704"/></g><g fill="#010101" transform="matrix(1 0 0 1 208.7272644 121.1128006)"><use transform="matrix(0.006 0 0 0.006 0.000000 0.000000)" xmlns:xlink="http://www.w3.org/1999/xlink" xlink:href="#f003-glyph-1-3701"/></g><g fill="#010101" transform="matrix(1 0 0 1 212.9652405 119.2728348)"><use transform="matrix(0.008 0 0 0.008 0.000000 0.000000)" xmlns:xlink="http://www.w3.org/1999/xlink" xlink:href="#f003-glyph-1-13"/></g></g>
		<g>
			
				<g fill="#010101" transform="matrix(1 0 0 1 160.1078186 166.3655396)"><use transform="matrix(0.008 0 0 0.008 0.000000 0.000000)" xmlns:xlink="http://www.w3.org/1999/xlink" xlink:href="#f003-glyph-1-3704"/></g><g fill="#010101" transform="matrix(1 0 0 1 169.1371155 166.3655396)"><use transform="matrix(0.008 0 0 0.008 0.000000 0.000000)" xmlns:xlink="http://www.w3.org/1999/xlink" xlink:href="#f003-glyph-1-33"/></g><g fill="#010101" transform="matrix(1 0 0 1 176.2783508 166.3655396)"><use transform="matrix(0.008 0 0 0.008 0.000000 0.000000)" xmlns:xlink="http://www.w3.org/1999/xlink" xlink:href="#f003-glyph-1-3729"/></g><g fill="#010101" transform="matrix(1 0 0 1 180.9023743 166.3655396)"><use transform="matrix(0.008 0 0 0.008 0.000000 0.000000)" xmlns:xlink="http://www.w3.org/1999/xlink" xlink:href="#f003-glyph-1-12"/><use transform="matrix(0.008 0 0 0.008 2.768000 0.000000)" xmlns:xlink="http://www.w3.org/1999/xlink" xlink:href="#f003-glyph-1-3719"/></g><g fill="#010101" transform="matrix(1 0 0 1 190.4703674 168.2055054)"><use transform="matrix(0.006 0 0 0.006 0.000000 0.000000)" xmlns:xlink="http://www.w3.org/1999/xlink" xlink:href="#f003-glyph-1-3705"/></g><g fill="#010101" transform="matrix(1 0 0 1 192.7983093 168.2055054)"><use transform="matrix(0.006 0 0 0.006 0.000000 0.000000)" xmlns:xlink="http://www.w3.org/1999/xlink" xlink:href="#f003-glyph-1-3701"/></g><g fill="#010101" transform="matrix(1 0 0 1 197.0362854 166.3655396)"><use transform="matrix(0.008 0 0 0.008 0.000000 0.000000)" xmlns:xlink="http://www.w3.org/1999/xlink" xlink:href="#f003-glyph-1-3720"/></g><g fill="#010101" transform="matrix(1 0 0 1 203.1803284 168.2055054)"><use transform="matrix(0.006 0 0 0.006 0.000000 0.000000)" xmlns:xlink="http://www.w3.org/1999/xlink" xlink:href="#f003-glyph-1-3701"/></g><g fill="#010101" transform="matrix(1 0 0 1 207.4183044 166.3655396)"><use transform="matrix(0.008 0 0 0.008 0.000000 0.000000)" xmlns:xlink="http://www.w3.org/1999/xlink" xlink:href="#f003-glyph-1-13"/></g></g>
		<g>
			
				<g fill="#010101" transform="matrix(1 0 0 1 114.3301697 34.6834183)"><use transform="matrix(0.008 0 0 0.008 0.000000 0.000000)" xmlns:xlink="http://www.w3.org/1999/xlink" xlink:href="#f003-glyph-1-121"/></g><g fill="#010101" transform="matrix(1 0 0 1 117.5781555 34.6834183)"><use transform="matrix(0.008 0 0 0.008 0.000000 0.000000)" xmlns:xlink="http://www.w3.org/1999/xlink" xlink:href="#f003-glyph-1-121"/></g><g fill="#010101" transform="matrix(1 0 0 1 120.8260803 34.6834183)"><use transform="matrix(0.008 0 0 0.008 0.000000 0.000000)" xmlns:xlink="http://www.w3.org/1999/xlink" xlink:href="#f003-glyph-1-121"/></g></g>
		<g>
			
				<g fill="#010101" transform="matrix(1 0 0 1 113.6393738 241.6372986)"><use transform="matrix(0.008 0 0 0.008 0.000000 0.000000)" xmlns:xlink="http://www.w3.org/1999/xlink" xlink:href="#f003-glyph-1-121"/></g><g fill="#010101" transform="matrix(1 0 0 1 116.8873596 241.6372986)"><use transform="matrix(0.008 0 0 0.008 0.000000 0.000000)" xmlns:xlink="http://www.w3.org/1999/xlink" xlink:href="#f003-glyph-1-121"/></g><g fill="#010101" transform="matrix(1 0 0 1 120.1352844 241.6372986)"><use transform="matrix(0.008 0 0 0.008 0.000000 0.000000)" xmlns:xlink="http://www.w3.org/1999/xlink" xlink:href="#f003-glyph-1-121"/></g></g>
		<g>
			
				<g fill="#010101" transform="matrix(1 0 0 1 114.4165192 77.8274002)"><use transform="matrix(0.008 0 0 0.008 0.000000 0.000000)" xmlns:xlink="http://www.w3.org/1999/xlink" xlink:href="#f003-glyph-1-121"/></g><g fill="#010101" transform="matrix(1 0 0 1 117.664505 77.8274002)"><use transform="matrix(0.008 0 0 0.008 0.000000 0.000000)" xmlns:xlink="http://www.w3.org/1999/xlink" xlink:href="#f003-glyph-1-121"/></g><g fill="#010101" transform="matrix(1 0 0 1 120.9123993 77.8274002)"><use transform="matrix(0.008 0 0 0.008 0.000000 0.000000)" xmlns:xlink="http://www.w3.org/1999/xlink" xlink:href="#f003-glyph-1-121"/></g></g>
		<g>
			
				<g fill="#010101" transform="matrix(1 0 0 1 119.288559 127.3274002)"><use transform="matrix(0.008 0 0 0.008 0.000000 0.000000)" xmlns:xlink="http://www.w3.org/1999/xlink" xlink:href="#f003-glyph-1-121"/></g><g fill="#010101" transform="matrix(1 0 0 1 122.5365448 127.3274002)"><use transform="matrix(0.008 0 0 0.008 0.000000 0.000000)" xmlns:xlink="http://www.w3.org/1999/xlink" xlink:href="#f003-glyph-1-121"/></g><g fill="#010101" transform="matrix(1 0 0 1 125.7844391 127.3274002)"><use transform="matrix(0.008 0 0 0.008 0.000000 0.000000)" xmlns:xlink="http://www.w3.org/1999/xlink" xlink:href="#f003-glyph-1-121"/></g></g>
		<g>
			
				<g fill="#010101" transform="matrix(1 0 0 1 120.9823303 176.6784058)"><use transform="matrix(0.008 0 0 0.008 0.000000 0.000000)" xmlns:xlink="http://www.w3.org/1999/xlink" xlink:href="#f003-glyph-1-121"/></g><g fill="#010101" transform="matrix(1 0 0 1 124.2303162 176.6784058)"><use transform="matrix(0.008 0 0 0.008 0.000000 0.000000)" xmlns:xlink="http://www.w3.org/1999/xlink" xlink:href="#f003-glyph-1-121"/></g><g fill="#010101" transform="matrix(1 0 0 1 127.4782104 176.6784058)"><use transform="matrix(0.008 0 0 0.008 0.000000 0.000000)" xmlns:xlink="http://www.w3.org/1999/xlink" xlink:href="#f003-glyph-1-121"/></g></g>
	</g>


</svg>